<svg width="374" height="230" viewBox="0 0 374 230" fill="none" xmlns="http://www.w3.org/2000/svg">
<circle cx="259" cy="115" r="114.5" fill="#1A1A1A" stroke="#414141"/>
<circle cx="211" cy="115" r="114.5" fill="#1A1A1A" stroke="#414141"/>
<circle cx="163" cy="115" r="114.5" fill="#1A1A1A" stroke="#414141"/>
<circle cx="115" cy="115" r="114.5" fill="#1A1A1A" stroke="#414141"/>
<path d="M40.704 96H46.944L52.752 84.36L58.536 96H64.776L72.072 79.632H66.576L61.632 91.56L55.632 79.632H49.824L43.968 91.56L38.904 79.632H33.408L40.704 96ZM95.3647 96V92.184H78.3967V89.304H94.9087V86.16H78.3967V83.448H95.3647V79.632H73.5247V96H95.3647ZM115.712 96C119.456 96 121.352 94.752 121.352 91.632C121.352 89.16 120.2 87.888 117.992 87.384C119.816 86.904 120.752 85.68 120.752 83.64C120.752 80.832 118.976 79.632 115.688 79.632H97.4723V96H115.712ZM114.32 83.304C115.664 83.304 116.24 83.736 116.24 84.744C116.24 85.752 115.52 86.184 114.44 86.184H102.272V83.304H114.32ZM114.848 89.616C116.072 89.616 116.84 89.952 116.84 91.104C116.84 92.28 116.192 92.616 114.728 92.616H102.272V89.616H114.848ZM141.394 96C145.138 96 147.034 94.752 147.034 91.632C147.034 89.16 145.882 87.888 143.674 87.384C145.498 86.904 146.434 85.68 146.434 83.64C146.434 80.832 144.658 79.632 141.37 79.632H123.154V96H141.394ZM140.002 83.304C141.346 83.304 141.922 83.736 141.922 84.744C141.922 85.752 141.202 86.184 140.122 86.184H127.954V83.304H140.002ZM140.53 89.616C141.754 89.616 142.522 89.952 142.522 91.104C142.522 92.28 141.874 92.616 140.41 92.616H127.954V89.616H140.53ZM157.597 89.928V96H162.469V89.952L173.581 79.632H167.437L160.093 86.256L152.749 79.632H146.509L157.597 89.928ZM39.168 124V119.248H45.384L51.264 124H57.384L52.008 119.776L50.712 118.984L51.768 118.96C55.392 118.672 57.528 116.944 57.528 113.344C57.528 109.048 54.72 107.632 50.688 107.632H34.296V124H39.168ZM39.168 111.808H50.208C51.816 111.808 52.488 112.264 52.488 113.728C52.488 115.072 51.816 115.6 50.208 115.6H39.168V111.808ZM81.2554 124V120.184H64.2874V117.304H80.7994V114.16H64.2874V111.448H81.2554V107.632H59.4154V124H81.2554ZM99.2989 124C104.891 124 108.683 122.2 108.683 115.792C108.683 109.576 104.939 107.632 99.2989 107.632H83.3629V124H99.2989ZM88.2349 111.808H98.8429C102.227 111.808 103.643 112.6 103.643 115.792C103.643 119.032 102.227 119.824 98.8429 119.824H88.2349V111.808ZM132.663 124C138.255 124 142.047 122.2 142.047 115.792C142.047 109.576 138.303 107.632 132.663 107.632H116.727V124H132.663ZM121.599 111.808H132.207C135.591 111.808 137.007 112.6 137.007 115.792C137.007 119.032 135.591 119.824 132.207 119.824H121.599V111.808ZM156.869 124.336C166.253 124.336 170.309 121.672 170.309 115.816C170.309 109.96 166.253 107.296 156.869 107.296C147.485 107.296 143.429 109.96 143.429 115.816C143.429 121.672 147.485 124.336 156.869 124.336ZM156.869 120.16C150.293 120.16 148.301 118.984 148.301 115.816C148.301 112.648 150.293 111.472 156.869 111.472C163.421 111.472 165.341 112.648 165.341 115.816C165.341 118.984 163.421 120.16 156.869 120.16ZM180.581 111.808V124H185.453V111.808H195.149V107.632H170.861V111.808H180.581Z" fill="white"/>
<path d="M44.88 147.368V143.816H33.912V147.368H44.88ZM43.9103 135.632L54.0863 143.864L43.8863 152H51.1343L57.9743 146.456L64.6943 152H72.0863L61.9103 143.792L71.9903 135.632H64.9583L58.0703 141.248L51.2303 135.632H43.9103ZM95.3753 139.448V135.632H75.9353L74.1833 144.896L74.4473 145.16L88.2473 145.328C90.8633 145.352 91.8233 145.688 91.8233 146.888C91.8233 148.112 90.7433 148.496 85.6313 148.496C81.3353 148.496 77.1353 148.16 74.1593 147.632L73.3193 151.352C76.6313 152 80.6153 152.336 84.9593 152.336C93.9113 152.336 96.5273 150.8 96.5273 146.84C96.5273 143.072 93.9593 141.968 88.8713 141.92L79.1993 141.8L79.6553 139.448H95.3753Z" fill="#A0A0A0"/>
</svg>
