<svg width="375" height="1092" viewBox="0 0 375 1092" fill="none" xmlns="http://www.w3.org/2000/svg">
<g clip-path="url(#clip0_292_3125)">
<rect x="23.4848" y="0.570163" width="322" height="85" rx="42.5" transform="rotate(8.73908 23.4848 0.570163)" fill="#121212"/>
<rect x="23.4848" y="0.570163" width="322" height="85" rx="42.5" transform="rotate(8.73908 23.4848 0.570163)" stroke="#D0D0D0"/>
<path d="M57.4109 54.8551L59.1505 55.1225L59.9375 50.0026L64.2469 50.665C65.9205 50.9223 67.2307 50.692 68.1775 49.9742C69.1262 49.2432 69.7079 48.1792 69.9227 46.7823C70.1496 45.3063 69.9097 44.1026 69.203 43.171C68.5115 42.2284 67.3619 41.6335 65.7541 41.3863L59.6261 40.4443L57.4109 54.8551ZM65.2601 42.8887C66.2749 43.0447 67.0367 43.3979 67.5457 43.9483C68.0567 44.4855 68.2463 45.1824 68.1146 46.039L67.9627 47.0274C67.831 47.884 67.4398 48.4983 66.789 48.8704C66.1403 49.2294 65.3086 49.3309 64.2938 49.1749L60.1623 48.5398L61.1287 42.2536L65.2601 42.8887ZM68.2679 56.524L69.9877 56.7884L71.8713 53.3547L78.6516 54.3969L79.3972 58.2348L81.1565 58.5052L78.153 43.2923L75.7216 42.9185L68.2679 56.524ZM72.5158 52.0575L75.0774 47.3723L76.6235 44.5545L76.7421 44.5728L77.3568 47.6823L78.4066 52.9631L72.5158 52.0575ZM87.6775 59.71C88.7713 59.8781 89.75 59.8734 90.6137 59.6959C91.4925 59.5073 92.2036 59.1377 92.7469 58.5872C93.3054 58.0255 93.6576 57.2702 93.8034 56.3214C93.9169 55.5834 93.8727 54.9493 93.6709 54.4192C93.4823 53.891 93.1806 53.44 92.766 53.066C92.3513 52.692 91.8617 52.3671 91.297 52.0915C90.7455 51.8178 90.1626 51.5731 89.5482 51.3572C88.8721 51.1049 88.2562 50.8551 87.7007 50.6078C87.1583 50.3626 86.7401 50.0555 86.4461 49.6865C86.1521 49.3176 86.0516 48.83 86.1448 48.2238C86.2583 47.4858 86.6307 46.9495 87.2622 46.6149C87.9089 46.2691 88.7199 46.1712 89.6951 46.3211C90.8285 46.4953 91.6334 46.8753 92.1099 47.4612C92.5864 48.0471 92.7766 48.7845 92.6804 49.6736L94.4991 49.9531C94.6712 48.6576 94.3746 47.5598 93.6091 46.6597C92.8457 45.7464 91.6271 45.1612 89.9534 44.9039C88.9255 44.7459 88.0051 44.7663 87.1921 44.965C86.3791 45.1638 85.7096 45.5263 85.1836 46.0525C84.6707 46.5807 84.3504 47.2599 84.2228 48.0902C84.0891 48.96 84.1936 49.6843 84.5363 50.263C84.8942 50.8307 85.4011 51.3066 86.0571 51.6907C86.7262 52.0768 87.4693 52.4204 88.2863 52.7213C88.9889 52.9777 89.6291 53.2448 90.2069 53.5224C90.7868 53.787 91.2339 54.1255 91.5482 54.538C91.8777 54.9394 91.9908 55.4762 91.8875 56.1483C91.7619 56.9653 91.3717 57.5731 90.7169 57.9716C90.0641 58.3569 89.1381 58.4573 87.9388 58.273C86.7923 58.0968 85.9225 57.7 85.3294 57.0827C84.7494 56.4675 84.5202 55.5891 84.6417 54.4476L82.8429 54.1711C82.7031 55.0804 82.7828 55.9223 83.0819 56.6968C83.3831 57.458 83.9108 58.1057 84.6651 58.6399C85.4345 59.1628 86.4387 59.5195 87.6775 59.71ZM101.055 61.7664C102.149 61.9346 103.128 61.9299 103.992 61.7524C104.871 61.5637 105.582 61.1941 106.125 60.6436C106.683 60.082 107.036 59.3267 107.181 58.3778C107.295 57.6398 107.251 57.0058 107.049 56.4756C106.86 55.9475 106.559 55.4964 106.144 55.1224C105.729 54.7484 105.24 54.4236 104.675 54.1479C104.124 53.8743 103.541 53.6295 102.926 53.4137C102.25 53.1614 101.634 52.9116 101.079 52.6643C100.536 52.419 100.118 52.1119 99.8241 51.743C99.5301 51.374 99.4297 50.8864 99.5228 50.2802C99.6363 49.5422 100.009 49.0059 100.64 48.6713C101.287 48.3256 102.098 48.2276 103.073 48.3775C104.206 48.5518 105.011 48.9318 105.488 49.5177C105.964 50.1035 106.155 50.841 106.058 51.73L107.877 52.0096C108.049 50.7141 107.753 49.6162 106.987 48.7162C106.224 47.8029 105.005 47.2176 103.331 46.9603C102.304 46.8023 101.383 46.8227 100.57 47.0215C99.7571 47.2203 99.0876 47.5828 98.5616 48.109C98.0487 48.6372 97.7284 49.3164 97.6008 50.1466C97.4671 51.0164 97.5716 51.7407 97.9143 52.3195C98.2722 52.8871 98.7792 53.363 99.4351 53.7471C100.104 54.1333 100.847 54.4768 101.664 54.7778C102.367 55.0342 103.007 55.3012 103.585 55.5789C104.165 55.8434 104.612 56.1819 104.926 56.5945C105.256 56.9959 105.369 57.5326 105.266 58.2047C105.14 59.0218 104.75 59.6296 104.095 60.028C103.442 60.4133 102.516 60.5138 101.317 60.3295C100.17 60.1532 99.3005 59.7565 98.7074 59.1392C98.1275 58.5239 97.8983 57.6456 98.0198 56.5041L96.2209 56.2276C96.0811 57.1369 96.1608 57.9788 96.4599 58.7532C96.7611 59.5145 97.2888 60.1622 98.0431 60.6963C98.8126 61.2193 99.8167 61.576 101.055 61.7664ZM109.996 62.9385L111.736 63.2059L113.951 48.7951L112.212 48.5277L109.996 62.9385ZM121.775 64.9515C123.897 65.2776 125.653 64.9135 127.043 63.8591C128.447 62.7935 129.335 61.0548 129.706 58.6432L129.718 58.5641C129.965 56.9563 129.895 55.5696 129.508 54.4038C129.122 53.2249 128.465 52.2807 127.535 51.5713C126.608 50.8486 125.445 50.3799 124.048 50.1652C122.665 49.9525 121.422 50.0514 120.32 50.4621C119.22 50.8597 118.309 51.5628 117.588 52.5715C116.868 53.5671 116.385 54.8687 116.138 56.4765L116.125 56.5556C115.755 58.9673 116.073 60.8913 117.08 62.3276C118.102 63.7527 119.667 64.6274 121.775 64.9515ZM122.012 63.4096C120.958 63.2475 120.093 62.9055 119.418 62.3835C118.743 61.8616 118.27 61.2088 117.999 60.4252C117.742 59.6437 117.687 58.7719 117.835 57.8098L118.145 55.7935C118.291 54.8447 118.604 54.0362 119.084 53.3681C119.564 52.7 120.198 52.2174 120.986 51.9203C121.789 51.612 122.731 51.5409 123.811 51.7071C124.905 51.8752 125.782 52.2258 126.442 52.759C127.104 53.2789 127.564 53.9297 127.821 54.7112C128.079 55.4928 128.135 56.358 127.989 57.3068L127.679 59.3231C127.531 60.2852 127.21 61.0992 126.717 61.7653C126.236 62.4334 125.596 62.915 124.795 63.2101C124.007 63.5072 123.08 63.5737 122.012 63.4096ZM131.888 66.3036L133.588 66.5649L135.417 54.6647L135.516 54.6799L135.714 55.2364L141.396 67.7652L143.57 68.0995L145.786 53.6887L144.086 53.4274L142.256 65.3276L142.157 65.3124L141.913 64.6677L136.337 52.2362L134.103 51.8929L131.888 66.3036ZM153.277 69.5916L155.017 69.859L157.232 55.4482L155.492 55.1808L153.277 69.5916ZM163.969 71.4375C165.063 71.6056 166.041 71.6009 166.905 71.4234C167.784 71.2347 168.495 70.8652 169.038 70.3146C169.597 69.753 169.949 68.9977 170.095 68.0489C170.208 67.3109 170.164 66.6768 169.962 66.1466C169.774 65.6185 169.472 65.1675 169.057 64.7934C168.643 64.4194 168.153 64.0946 167.588 63.8189C167.037 63.5453 166.454 63.3006 165.84 63.0847C165.163 62.8324 164.548 62.5826 163.992 62.3353C163.45 62.0901 163.031 61.783 162.737 61.414C162.443 61.045 162.343 60.5575 162.436 59.9512C162.55 59.2132 162.922 58.6769 163.554 58.3423C164.2 57.9966 165.011 57.8987 165.987 58.0486C167.12 58.2228 167.925 58.6028 168.401 59.1887C168.878 59.7746 169.068 60.512 168.972 61.4011L170.79 61.6806C170.963 60.3851 170.666 59.2873 169.901 58.3872C169.137 57.4739 167.919 56.8886 166.245 56.6314C165.217 56.4734 164.296 56.4937 163.483 56.6925C162.671 56.8913 162.001 57.2538 161.475 57.78C160.962 58.3082 160.642 58.9874 160.514 59.8177C160.38 60.6875 160.485 61.4117 160.828 61.9905C161.186 62.5582 161.693 63.034 162.348 63.4182C163.018 63.8043 163.761 64.1479 164.578 64.4488C165.28 64.7052 165.92 64.9722 166.498 65.2499C167.078 65.5144 167.525 65.853 167.84 66.2655C168.169 66.6669 168.282 67.2036 168.179 67.8758C168.053 68.6928 167.663 69.3006 167.008 69.6991C166.355 70.0844 165.429 70.1848 164.23 70.0005C163.084 69.8242 162.214 69.4275 161.621 68.8102C161.041 68.1949 160.812 67.3166 160.933 66.1751L159.134 65.8986C158.994 66.8079 159.074 67.6498 159.373 68.4242C159.674 69.1855 160.202 69.8332 160.956 70.3673C161.726 70.8903 162.73 71.247 163.969 71.4375ZM183.646 74.4623C185.768 74.7884 187.524 74.4243 188.913 73.3698C190.318 72.3043 191.206 70.5656 191.577 68.154L191.589 68.0749C191.836 66.4671 191.766 65.0803 191.379 63.9146C190.993 62.7357 190.336 61.7915 189.406 61.082C188.478 60.3594 187.316 59.8907 185.919 59.6759C184.536 59.4632 183.293 59.5622 182.191 59.9729C181.091 60.3704 180.18 61.0736 179.459 62.0823C178.739 63.0778 178.256 64.3795 178.009 65.9873L177.996 66.0664C177.626 68.478 177.944 70.402 178.95 71.8383C179.972 73.2635 181.538 74.1381 183.646 74.4623ZM183.883 72.9204C182.829 72.7583 181.964 72.4163 181.289 71.8943C180.614 71.3723 180.141 70.7196 179.87 69.936C179.613 69.1544 179.558 68.2827 179.706 67.3206L180.016 65.3043C180.161 64.3555 180.475 63.547 180.955 62.8789C181.435 62.2108 182.069 61.7282 182.857 61.4311C183.66 61.1228 184.602 61.0517 185.682 61.2178C186.776 61.386 187.653 61.7366 188.313 62.2697C188.975 62.7897 189.435 63.4404 189.692 64.222C189.95 65.0035 190.006 65.8687 189.86 66.8176L189.55 68.8339C189.402 69.7959 189.081 70.61 188.588 71.2761C188.107 71.9442 187.467 72.4257 186.666 72.7208C185.878 73.018 184.951 73.0845 183.883 72.9204ZM199.441 76.8902C200.64 77.0746 201.709 77.0096 202.648 76.6952C203.602 76.3697 204.38 75.8283 204.982 75.0709C205.599 74.3025 205.997 73.3384 206.175 72.1787L207.558 63.1843L205.818 62.9169L204.451 71.8124C204.252 73.1039 203.721 74.0609 202.856 74.6835C202.007 75.2948 200.956 75.5043 199.704 75.3118C198.439 75.1174 197.487 74.5934 196.85 73.7399C196.227 72.8753 196.013 71.8104 196.208 70.5453L197.575 61.6498L195.835 61.3824L194.453 70.3767C194.281 71.4969 194.354 72.5131 194.672 73.4254C194.991 74.3377 195.548 75.098 196.345 75.7061C197.157 76.3031 198.189 76.6978 199.441 76.8902ZM209.704 78.2655L211.444 78.5329L212.301 72.9584L215.898 73.5114L218.797 79.6633L220.873 79.9824L217.866 73.6116C219.114 73.655 220.112 73.3497 220.86 72.6958C221.61 72.0287 222.074 71.1153 222.252 69.9556C222.467 68.5586 222.225 67.4152 221.525 66.5252C220.828 65.6221 219.688 65.049 218.107 64.8059L211.919 63.8548L209.704 78.2655ZM217.553 66.2992C218.568 66.4551 219.333 66.7886 219.848 67.2994C220.363 67.8103 220.56 68.461 220.438 69.2518L220.286 70.2401C220.163 71.044 219.779 71.6123 219.134 71.9448C218.491 72.2642 217.663 72.346 216.648 72.19L212.516 71.5549L213.422 65.6641L217.553 66.2992ZM235.131 82.3765C236.252 82.5487 237.284 82.505 238.227 82.2454C239.186 81.9746 239.998 81.5193 240.663 80.8796C241.343 80.2287 241.811 79.4238 242.066 78.4648L240.267 78.1882C240.037 78.8948 239.673 79.4661 239.174 79.9021C238.678 80.3248 238.1 80.6138 237.442 80.769C236.785 80.9242 236.093 80.9461 235.368 80.8346C234.314 80.6726 233.449 80.3306 232.774 79.8086C232.099 79.2866 231.626 78.6338 231.355 77.8503C231.098 77.0687 231.043 76.1969 231.191 75.2349L231.501 73.2186C231.647 72.2697 231.96 71.4612 232.44 70.7932C232.921 70.1251 233.555 69.6424 234.342 69.3453C235.145 69.0371 236.087 68.966 237.167 69.1321C237.879 69.2415 238.519 69.468 239.086 69.8116C239.669 70.144 240.134 70.5864 240.481 71.1388C240.841 71.6933 241.03 72.3497 241.048 73.1079L242.847 73.3844C242.879 72.391 242.673 71.4893 242.231 70.6794C241.789 69.8695 241.157 69.199 240.335 68.6679C239.514 68.1237 238.538 67.7644 237.404 67.5902C236.021 67.3775 234.778 67.4765 233.676 67.8872C232.576 68.2847 231.665 68.9878 230.944 69.9966C230.224 70.9921 229.741 72.2938 229.494 73.9016L229.481 73.9806C229.111 76.3923 229.429 78.3163 230.436 79.7526C231.458 81.1778 233.023 82.0524 235.131 82.3765ZM244.607 83.6307L246.346 83.8981L247.203 78.3236L250.801 78.8766L253.7 85.0285L255.775 85.3476L252.769 78.9768C254.016 79.0202 255.014 78.7149 255.762 78.061C256.512 77.3939 256.977 76.4805 257.155 75.3208C257.37 73.9238 257.127 72.7804 256.428 71.8904C255.73 70.9873 254.591 70.4142 253.009 70.1711L246.822 69.22L244.607 83.6307ZM252.456 71.6644C253.471 71.8204 254.236 72.1538 254.751 72.6646C255.266 73.1755 255.462 73.8262 255.341 74.617L255.189 75.6054C255.065 76.4092 254.681 76.9775 254.036 77.3101C253.394 77.6295 252.565 77.7112 251.55 77.5552L247.419 76.9201L248.324 71.0293L252.456 71.6644ZM257.162 85.5608L258.882 85.8252L260.766 82.3915L267.546 83.4337L268.292 87.2716L270.051 87.542L267.048 72.3291L264.616 71.9553L257.162 85.5608ZM261.41 81.0943L263.972 76.4091L265.518 73.5913L265.637 73.6096L266.251 76.7191L267.301 81.9999L261.41 81.0943ZM272.405 87.9039L274.145 88.1713L275.108 81.9049L282.442 83.0323L282.667 81.5694L275.333 80.4421L276.123 75.3025L284.247 76.5514L284.484 75.0095L274.62 73.4932L272.405 87.9039ZM296.699 78.4654L296.936 76.9235L285.866 75.2219L285.629 76.7638L290.294 77.4809L288.316 90.3497L290.076 90.6202L292.054 77.7513L296.699 78.4654Z" fill="white"/>
<rect x="46.7057" y="239.305" width="196" height="85" rx="42.5" transform="rotate(-41.3929 46.7057 239.305)" fill="white"/>
<rect x="46.7057" y="239.305" width="196" height="85" rx="42.5" transform="rotate(-41.3929 46.7057 239.305)" stroke="#D0D0D0"/>
<path d="M110.118 248.063L114.199 244.466C115.219 243.567 115.942 242.592 116.367 241.542C116.792 240.492 116.867 239.387 116.59 238.226C116.305 237.056 115.607 235.84 114.496 234.58L114.39 234.46C112.795 232.65 111.154 231.696 109.47 231.599C107.776 231.492 106.139 232.136 104.558 233.529L100.477 237.126L110.118 248.063ZM110.407 245.729L102.829 237.132L105.575 234.712C106.805 233.628 108.007 233.146 109.18 233.267C110.355 233.37 111.413 233.956 112.357 235.026L113.692 236.542C114.706 237.692 115.157 238.859 115.045 240.042C114.933 241.206 114.303 242.295 113.152 243.309L110.407 245.729ZM121.781 237.783L123.101 236.62L113.461 225.682L112.14 226.846L121.781 237.783ZM126.528 233.599L133.655 227.318L132.597 226.117L126.791 231.235L118.208 221.498L116.888 222.661L126.528 233.599ZM136.257 225.024L137.578 223.86L127.937 212.922L126.617 214.086L136.257 225.024ZM145.083 217.512C145.713 216.956 146.205 216.345 146.559 215.678C146.904 215 147.103 214.319 147.156 213.632C147.199 212.936 147.08 212.277 146.798 211.654L146.873 211.588L149.002 213.791L150.007 212.905L145.061 207.294L140.425 211.38L141.324 212.4L144.55 209.557L144.682 209.707C145.608 210.757 146.044 211.857 145.991 213.006C145.937 214.155 145.35 215.224 144.23 216.211C143.139 217.172 141.982 217.633 140.756 217.593C139.54 217.545 138.408 216.926 137.359 215.735L135.997 214.19C135.371 213.48 134.955 212.726 134.751 211.929C134.537 211.122 134.574 210.317 134.86 209.513C135.138 208.699 135.688 207.931 136.508 207.208C137.368 206.45 138.284 206.007 139.256 205.879C140.218 205.741 141.105 205.982 141.917 206.6L143.282 205.396C142.576 204.756 141.784 204.362 140.905 204.212C140.018 204.052 139.106 204.127 138.17 204.436C137.245 204.737 136.351 205.266 135.491 206.024C134.441 206.95 133.711 207.967 133.301 209.075C132.901 210.174 132.852 211.328 133.154 212.537C133.465 213.738 134.168 214.958 135.261 216.198L135.327 216.273C136.843 217.994 138.443 218.992 140.126 219.268C141.8 219.534 143.453 218.949 145.083 217.512ZM153.151 210.134L160.713 203.469L159.682 202.298L153.44 207.8L150.015 203.914L155.522 199.06L154.556 197.965L149.05 202.818L145.863 199.202L152.104 193.701L151.073 192.531L143.511 199.196L153.151 210.134ZM163.364 201.132L164.654 199.995L156.693 190.963L156.768 190.897L157.322 191.102L170.581 194.771L172.231 193.317L162.591 182.379L161.3 183.516L169.261 192.549L169.186 192.615L168.535 192.389L155.419 188.7L153.723 190.195L163.364 201.132ZM179.991 186.744C180.841 185.995 181.469 185.175 181.875 184.284C182.282 183.374 182.453 182.459 182.388 181.539C182.324 180.6 182.006 179.725 181.434 178.914L180.069 180.117C180.463 180.747 180.668 181.393 180.683 182.055C180.689 182.707 180.541 183.335 180.239 183.94C179.936 184.544 179.51 185.089 178.959 185.574C178.159 186.279 177.342 186.724 176.509 186.907C175.675 187.091 174.871 187.035 174.096 186.741C173.331 186.438 172.627 185.921 171.983 185.191L170.635 183.66C170 182.94 169.58 182.182 169.375 181.385C169.17 180.588 169.206 179.792 169.483 178.997C169.761 178.183 170.31 177.414 171.131 176.691C171.671 176.215 172.255 175.87 172.882 175.654C173.511 175.42 174.149 175.347 174.795 175.435C175.451 175.514 176.076 175.789 176.67 176.261L178.035 175.058C177.293 174.397 176.469 173.977 175.564 173.797C174.659 173.617 173.739 173.672 172.805 173.963C171.861 174.244 170.959 174.763 170.099 175.521C169.049 176.447 168.328 177.464 167.937 178.573C167.537 179.672 167.493 180.822 167.805 182.022C168.107 183.213 168.797 184.418 169.872 185.639L169.925 185.699C171.538 187.529 173.219 188.518 174.967 188.666C176.716 188.795 178.39 188.155 179.991 186.744ZM187.027 180.276L194.589 173.61L193.558 172.44L187.316 177.942L183.891 174.056L189.397 169.202L188.432 168.107L182.926 172.96L179.739 169.344L185.98 163.843L184.949 162.673L177.387 169.338L187.027 180.276Z" fill="#121212"/>
<rect x="44.7013" y="566.298" width="191" height="85" rx="42.5" transform="rotate(-37.6222 44.7013 566.298)" fill="#121212"/>
<rect x="44.7013" y="566.298" width="191" height="85" rx="42.5" transform="rotate(-37.6222 44.7013 566.298)" stroke="#D0D0D0"/>
<path d="M111.102 576.607C111.979 575.931 112.651 575.22 113.118 574.472C113.588 573.706 113.812 572.936 113.788 572.163C113.767 571.371 113.464 570.595 112.878 569.835C112.422 569.243 111.932 568.838 111.409 568.618C110.897 568.39 110.362 568.297 109.806 568.339C109.249 568.381 108.676 568.511 108.087 568.73C107.508 568.94 106.929 569.193 106.348 569.489C105.699 569.804 105.093 570.077 104.531 570.308C103.979 570.532 103.468 570.622 102.999 570.581C102.529 570.539 102.106 570.275 101.732 569.789C101.276 569.198 101.145 568.558 101.339 567.87C101.535 567.164 102.024 566.509 102.805 565.907C103.713 565.207 104.544 564.887 105.297 564.946C106.05 565.005 106.714 565.377 107.292 566.06L108.749 564.937C107.93 563.918 106.931 563.375 105.751 563.308C104.563 563.23 103.299 563.708 101.958 564.742C101.134 565.377 100.514 566.057 100.096 566.782C99.6792 567.508 99.4795 568.243 99.4973 568.986C99.5256 569.722 99.7962 570.423 100.309 571.088C100.846 571.785 101.442 572.209 102.098 572.361C102.756 572.493 103.45 572.455 104.18 572.245C104.922 572.028 105.683 571.727 106.465 571.343C107.135 571.012 107.77 570.733 108.37 570.506C108.962 570.269 109.515 570.179 110.031 570.236C110.548 570.275 111.015 570.563 111.43 571.102C111.935 571.757 112.105 572.459 111.942 573.207C111.77 573.946 111.204 574.685 110.243 575.426C109.324 576.134 108.437 576.49 107.581 576.493C106.735 576.488 105.941 576.048 105.199 575.172L103.757 576.283C104.319 577.012 104.983 577.535 105.75 577.853C106.509 578.161 107.342 578.226 108.249 578.048C109.159 577.852 110.11 577.372 111.102 576.607ZM118.121 570.945L119.515 569.871L110.614 558.322L109.22 559.397L118.121 570.945ZM123.133 567.082L124.495 566.032L117.145 556.496L117.225 556.435L117.764 556.676L130.752 561.209L132.495 559.866L123.595 548.318L122.232 549.368L129.582 558.905L129.503 558.966L128.867 558.698L116.023 554.154L114.233 555.534L123.133 567.082ZM140.67 553.818C141.568 553.126 142.248 552.349 142.712 551.487C143.177 550.606 143.408 549.705 143.404 548.782C143.402 547.841 143.143 546.947 142.625 546.1L141.183 547.211C141.536 547.865 141.698 548.523 141.669 549.185C141.633 549.836 141.443 550.453 141.102 551.036C140.76 551.62 140.299 552.135 139.718 552.583C138.873 553.234 138.029 553.624 137.185 553.752C136.341 553.88 135.542 553.772 134.788 553.427C134.045 553.075 133.376 552.513 132.782 551.742L131.537 550.126C130.951 549.366 130.582 548.581 130.43 547.772C130.278 546.963 130.366 546.172 130.695 545.397C131.026 544.603 131.624 543.872 132.49 543.205C133.06 542.765 133.666 542.459 134.306 542.285C134.949 542.092 135.59 542.061 136.229 542.192C136.879 542.314 137.484 542.63 138.046 543.14L139.487 542.029C138.79 541.321 137.996 540.847 137.104 540.608C136.213 540.369 135.292 540.364 134.34 540.592C133.38 540.81 132.446 541.269 131.538 541.969C130.429 542.824 129.643 543.792 129.18 544.872C128.708 545.943 128.589 547.087 128.821 548.305C129.045 549.513 129.653 550.761 130.646 552.05L130.695 552.113C132.184 554.046 133.796 555.143 135.53 555.406C137.267 555.65 138.98 555.121 140.67 553.818ZM148.117 547.827L156.101 541.673L155.148 540.438L148.558 545.517L145.396 541.414L151.21 536.933L150.319 535.777L144.505 540.257L141.563 536.44L148.152 531.361L147.2 530.125L139.216 536.278L148.117 547.827ZM158.899 539.516L160.293 538.442L156.85 533.975L159.733 531.753L166.186 533.9L167.849 532.618L161.164 530.398C162.056 529.525 162.524 528.592 162.567 527.599C162.602 526.596 162.261 525.63 161.545 524.7C160.682 523.581 159.687 522.967 158.56 522.859C157.425 522.741 156.224 523.17 154.957 524.147L149.999 527.968L158.899 539.516ZM155.656 525.578C156.469 524.951 157.238 524.627 157.963 524.607C158.688 524.587 159.295 524.894 159.783 525.527L160.394 526.32C160.89 526.964 161.037 527.634 160.832 528.33C160.62 529.015 160.107 529.672 159.294 530.298L155.983 532.85L152.345 528.129L155.656 525.578ZM170.656 530.455L172.05 529.38L163.15 517.832L161.756 518.907L170.656 530.455ZM174.975 510.688L174.023 509.452L165.152 516.289L166.104 517.525L169.843 514.643L177.791 524.956L179.201 523.869L171.253 513.557L174.975 510.688ZM187.85 517.203L189.26 516.117L185.536 511.285L184.415 501.443L182.815 502.676L183.66 509.474L183.796 510.404L183.717 510.465L182.852 510.096L176.494 507.548L174.894 508.781L184.126 512.372L187.85 517.203Z" fill="white"/>
<rect x="36.9489" y="611.592" width="301" height="85" rx="42.5" transform="rotate(11.7829 36.9489 611.592)" fill="white"/>
<rect x="36.9489" y="611.592" width="301" height="85" rx="42.5" transform="rotate(11.7829 36.9489 611.592)" stroke="#D0D0D0"/>
<path d="M65.8302 667.16L67.5335 667.515L69.5967 664.187L76.3122 665.587L76.8529 669.459L78.5954 669.823L76.4039 654.472L73.9958 653.97L65.8302 667.16ZM70.3093 662.926L73.116 658.383L74.8095 655.651L74.927 655.676L75.3757 658.813L76.1437 664.143L70.3093 662.926ZM80.9269 670.309L82.6107 670.661L85.0048 659.086L85.1641 658.322L85.2815 658.346L85.3768 659.163L87.1921 671.616L88.9541 671.984L95.6205 661.28L96.0106 660.585L96.1281 660.609L93.5551 672.944L95.2389 673.295L98.2162 659.022L95.4947 658.454L88.5574 669.674L88.4595 669.654L86.5669 656.592L83.9042 656.037L80.9269 670.309ZM99.7025 674.226L101.425 674.585L104.403 660.313L102.68 659.953L99.7025 674.226ZM103.783 675.077L105.486 675.432L107.549 672.104L114.265 673.504L114.805 677.376L116.548 677.74L114.357 662.389L111.948 661.887L103.783 675.077ZM108.262 670.842L111.069 666.3L112.762 663.568L112.88 663.593L113.328 666.73L114.096 672.06L108.262 670.842ZM118.612 678.17L125.014 679.506C126.424 679.8 127.613 679.714 128.582 679.249C129.553 678.771 130.176 677.872 130.451 676.554C130.65 675.601 130.555 674.785 130.166 674.104C129.792 673.413 129.195 672.914 128.374 672.607L128.402 672.469C129.255 672.429 129.944 672.165 130.468 671.675C131.006 671.187 131.36 670.533 131.532 669.71C131.771 668.562 131.603 667.607 131.026 666.847C130.465 666.076 129.518 665.552 128.187 665.274L121.589 663.898L118.612 678.17ZM127.479 666.515C128.288 666.684 128.904 666.997 129.326 667.452C129.751 667.895 129.891 668.469 129.744 669.174L129.588 669.918C129.455 670.557 129.111 671.031 128.557 671.337C128.005 671.631 127.305 671.689 126.457 671.512L121.954 670.573L122.995 665.58L127.479 666.515ZM126.281 672.844C127.169 673.029 127.833 673.372 128.273 673.873C128.716 674.36 128.863 674.963 128.713 675.681L128.57 676.366C128.412 677.123 128.029 677.656 127.419 677.965C126.81 678.273 126.055 678.334 125.155 678.146L120.573 677.19L121.68 671.884L126.281 672.844ZM132.856 681.142L142.156 683.082L142.483 681.515L134.906 679.935L137.556 667.228L135.833 666.869L132.856 681.142ZM145.551 683.79L155.419 685.848L155.738 684.321L147.593 682.622L148.651 677.551L155.836 679.05L156.134 677.621L148.949 676.122L149.933 671.404L158.078 673.103L158.396 671.576L148.529 669.517L145.551 683.79ZM164.04 687.647L165.724 687.998L168.183 676.212L168.281 676.232L168.448 676.798L173.458 689.611L175.611 690.06L178.588 675.788L176.905 675.436L174.446 687.223L174.348 687.202L174.138 686.546L169.23 673.835L167.018 673.374L164.04 687.647ZM180.063 690.989L189.93 693.047L190.249 691.52L182.104 689.821L183.162 684.75L190.347 686.249L190.645 684.82L183.46 683.321L184.444 678.603L192.589 680.302L192.907 678.775L183.04 676.716L180.063 690.989ZM193.389 693.769L195.112 694.128L196.264 688.607L199.827 689.35L202.395 695.648L204.451 696.076L201.786 689.555C203.03 689.665 204.043 689.413 204.825 688.799C205.609 688.173 206.121 687.286 206.361 686.137C206.649 684.753 206.468 683.599 205.817 682.673C205.168 681.734 204.061 681.101 202.494 680.774L196.366 679.496L193.389 693.769ZM201.863 682.236C202.868 682.446 203.614 682.819 204.101 683.357C204.588 683.894 204.75 684.555 204.587 685.338L204.382 686.317C204.216 687.113 203.803 687.66 203.141 687.958C202.482 688.243 201.651 688.28 200.645 688.071L196.554 687.217L197.771 681.383L201.863 682.236ZM207.92 696.8L213.245 697.911C214.577 698.189 215.79 698.183 216.885 697.894C217.981 697.605 218.91 697.002 219.674 696.085C220.44 695.155 220.994 693.868 221.337 692.223L221.37 692.067C221.863 689.704 221.643 687.82 220.711 686.413C219.781 684.993 218.285 684.068 216.223 683.638L210.897 682.527L207.92 696.8ZM209.961 695.632L212.302 684.414L215.884 685.161C217.49 685.496 218.596 686.169 219.202 687.181C219.824 688.183 219.989 689.382 219.698 690.778L219.285 692.756C218.972 694.257 218.308 695.317 217.294 695.936C216.295 696.545 215.045 696.693 213.544 696.38L209.961 695.632ZM223.139 699.975L224.862 700.334L227.839 686.061L226.117 685.702L223.139 699.975ZM229.334 701.267L231.018 701.618L233.476 689.832L233.574 689.852L233.742 690.419L238.751 703.231L240.905 703.681L243.882 689.408L242.198 689.057L239.74 700.843L239.642 700.823L239.432 700.166L234.524 687.456L232.311 686.994L229.334 701.267ZM245.356 704.609L255.224 706.668L255.542 705.14L247.398 703.442L248.456 698.371L255.641 699.87L255.939 698.44L248.754 696.941L249.738 692.223L257.883 693.922L258.201 692.395L248.334 690.336L245.356 704.609ZM263.067 708.508C264.15 708.734 265.128 708.781 265.999 708.65C266.887 708.508 267.617 708.177 268.189 707.656C268.776 707.125 269.168 706.389 269.364 705.449C269.516 704.718 269.506 704.083 269.333 703.543C269.172 703.005 268.895 702.539 268.501 702.143C268.107 701.748 267.635 701.398 267.086 701.092C266.549 700.79 265.98 700.514 265.378 700.266C264.716 699.978 264.115 699.696 263.573 699.42C263.045 699.146 262.643 698.817 262.369 698.433C262.095 698.049 262.021 697.557 262.146 696.957C262.299 696.226 262.699 695.71 263.347 695.409C264.012 695.098 264.827 695.044 265.792 695.245C266.915 695.479 267.699 695.901 268.143 696.512C268.588 697.122 268.739 697.869 268.595 698.751L270.397 699.127C270.637 697.842 270.399 696.73 269.683 695.791C268.969 694.839 267.783 694.189 266.126 693.844C265.108 693.631 264.187 693.603 263.365 693.758C262.543 693.913 261.855 694.24 261.301 694.737C260.761 695.238 260.405 695.899 260.234 696.721C260.054 697.583 260.12 698.311 260.432 698.908C260.759 699.493 261.24 699.995 261.874 700.414C262.522 700.835 263.246 701.218 264.046 701.561C264.734 701.855 265.359 702.155 265.921 702.463C266.486 702.758 266.915 703.12 267.207 703.549C267.514 703.967 267.599 704.509 267.46 705.175C267.291 705.984 266.869 706.57 266.194 706.933C265.522 707.283 264.592 707.335 263.404 707.087C262.268 706.85 261.421 706.408 260.861 705.76C260.315 705.115 260.133 704.225 260.315 703.092L258.533 702.72C258.345 703.621 258.38 704.466 258.638 705.255C258.898 706.031 259.39 706.706 260.115 707.279C260.856 707.842 261.84 708.252 263.067 708.508ZM276.317 711.272C277.4 711.498 278.378 711.545 279.249 711.414C280.137 711.272 280.867 710.941 281.438 710.42C282.026 709.889 282.418 709.153 282.614 708.213C282.766 707.482 282.756 706.847 282.583 706.307C282.422 705.769 282.145 705.303 281.751 704.907C281.357 704.512 280.885 704.162 280.336 703.856C279.799 703.554 279.23 703.278 278.628 703.03C277.966 702.742 277.365 702.46 276.823 702.184C276.294 701.91 275.893 701.581 275.619 701.197C275.345 700.813 275.271 700.321 275.396 699.72C275.548 698.99 275.949 698.474 276.597 698.173C277.261 697.862 278.076 697.808 279.042 698.009C280.165 698.243 280.948 698.665 281.393 699.276C281.838 699.886 281.989 700.633 281.845 701.515L283.647 701.891C283.887 700.606 283.649 699.494 282.933 698.555C282.219 697.602 281.033 696.953 279.376 696.608C278.357 696.395 277.437 696.367 276.615 696.522C275.792 696.677 275.105 697.004 274.551 697.501C274.011 698.001 273.655 698.663 273.484 699.485C273.304 700.346 273.37 701.075 273.681 701.671C274.009 702.257 274.49 702.759 275.124 703.178C275.772 703.599 276.496 703.981 277.296 704.325C277.984 704.619 278.609 704.919 279.171 705.227C279.736 705.522 280.165 705.884 280.456 706.313C280.764 706.731 280.849 707.273 280.71 707.939C280.541 708.748 280.119 709.334 279.444 709.697C278.772 710.047 277.842 710.099 276.654 709.851C275.518 709.614 274.671 709.172 274.111 708.524C273.565 707.878 273.383 706.989 273.565 705.856L271.783 705.484C271.595 706.385 271.63 707.23 271.888 708.019C272.148 708.795 272.64 709.47 273.365 710.043C274.106 710.606 275.09 711.016 276.317 711.272Z" fill="#121212"/>
<rect x="265.295" y="340.66" width="270" height="85" rx="42.5" transform="rotate(65.9733 265.295 340.66)" stroke="#D0D0D0"/>
<path d="M238.009 398.567L238.726 400.175L244.754 397.488L248.174 405.16L242.146 407.847L242.87 409.473L256.187 403.536L255.462 401.911L249.599 404.525L246.179 396.852L252.042 394.239L251.326 392.631L238.009 398.567ZM246.899 419.002C247.393 420.11 248.027 420.974 248.799 421.593C249.589 422.219 250.465 422.58 251.428 422.677C252.408 422.78 253.434 422.592 254.506 422.115L262.817 418.409L262.101 416.802L253.881 420.466C252.687 420.998 251.595 421.069 250.603 420.679C249.629 420.296 248.885 419.526 248.369 418.369C247.848 417.2 247.773 416.116 248.146 415.118C248.536 414.126 249.316 413.37 250.485 412.849L258.705 409.185L257.988 407.577L249.677 411.282C248.642 411.744 247.827 412.355 247.232 413.117C246.637 413.878 246.3 414.759 246.22 415.758C246.157 416.764 246.384 417.845 246.899 419.002ZM251.297 428.376L251.998 429.947L262.785 425.116L263.498 424.799L263.547 424.908L262.94 425.463L253.903 434.222L254.636 435.866L267.217 435.009L268.009 434.919L268.058 435.028L256.55 440.159L257.25 441.73L270.567 435.793L269.435 433.254L256.277 434.193L256.236 434.101L265.722 424.924L264.614 422.44L251.297 428.376ZM261.212 451.109C262.086 453.069 263.343 454.349 264.981 454.947C266.638 455.551 268.58 455.357 270.809 454.363L270.882 454.331C272.368 453.668 273.496 452.859 274.266 451.902C275.049 450.94 275.487 449.876 275.581 448.711C275.686 447.539 275.452 446.308 274.876 445.018C274.306 443.739 273.55 442.747 272.608 442.043C271.679 441.333 270.595 440.948 269.356 440.887C268.129 440.821 266.773 441.119 265.288 441.781L265.214 441.814C262.986 442.807 261.54 444.116 260.877 445.74C260.232 447.371 260.344 449.16 261.212 451.109ZM262.637 450.474C262.203 449.499 262.022 448.587 262.096 447.737C262.169 446.887 262.462 446.136 262.975 445.484C263.492 444.844 264.196 444.326 265.085 443.93L266.948 443.099C267.825 442.708 268.674 442.534 269.496 442.577C270.318 442.619 271.067 442.891 271.743 443.392C272.437 443.901 273.006 444.654 273.451 445.653C273.902 446.664 274.082 447.591 273.99 448.434C273.912 449.272 273.613 450.011 273.095 450.651C272.578 451.29 271.88 451.805 271.003 452.196L269.14 453.027C268.251 453.423 267.393 453.594 266.566 453.54C265.744 453.497 264.992 453.219 264.311 452.705C263.635 452.204 263.077 451.46 262.637 450.474ZM267.719 465.704C268.213 466.813 268.846 467.676 269.618 468.296C270.408 468.921 271.285 469.283 272.247 469.379C273.228 469.482 274.254 469.295 275.325 468.817L283.637 465.112L282.92 463.504L274.7 467.169C273.507 467.701 272.414 467.772 271.423 467.382C270.449 466.998 269.704 466.228 269.188 465.071C268.667 463.902 268.593 462.819 268.965 461.82C269.356 460.829 270.135 460.073 271.304 459.551L279.524 455.887L278.808 454.28L270.496 457.985C269.461 458.446 268.646 459.058 268.051 459.819C267.457 460.581 267.119 461.461 267.039 462.46C266.976 463.466 267.203 464.548 267.719 465.704ZM272.117 475.079L272.833 476.686L277.985 474.39L279.467 477.715L275.863 483.482L276.718 485.4L280.447 479.423C281.086 480.496 281.883 481.17 282.838 481.445C283.805 481.715 284.824 481.611 285.896 481.133C287.187 480.558 288.017 479.735 288.387 478.665C288.769 477.59 288.634 476.321 287.982 474.86L285.434 469.142L272.117 475.079ZM286.427 475.203C286.845 476.141 286.979 476.964 286.828 477.674C286.677 478.383 286.236 478.901 285.506 479.227L284.592 479.634C283.85 479.965 283.164 479.95 282.535 479.587C281.919 479.22 281.402 478.567 280.984 477.63L279.282 473.812L284.725 471.385L286.427 475.203ZM281.526 496.676C281.9 497.516 282.409 498.231 283.051 498.821C283.699 499.422 284.445 499.82 285.29 500.012L284.265 502.33L285.088 504.175L286.7 500.522C287.223 500.581 287.805 500.562 288.448 500.466C289.103 500.363 289.706 500.226 290.257 500.053L291.072 501.88L292.204 501.375L290.885 498.416C290.344 498.643 289.729 498.836 289.042 498.997C288.372 499.164 287.778 499.239 287.259 499.222L289.337 494.551L289.429 494.51C290.108 495.215 290.853 495.708 291.664 495.988C292.481 496.281 293.297 496.246 294.113 495.882C294.685 495.627 295.125 495.27 295.432 494.812C295.751 494.349 295.926 493.826 295.958 493.242C295.995 492.671 295.881 492.087 295.615 491.49C295.316 490.82 294.925 490.287 294.441 489.889C293.963 489.504 293.43 489.274 292.842 489.2C292.267 489.121 291.687 489.212 291.102 489.472C290.518 489.733 290.044 490.112 289.682 490.609C289.32 491.106 288.977 491.712 288.653 492.426C287.781 491.617 286.876 491.109 285.936 490.9C285.008 490.686 284.136 490.76 283.321 491.124C282.541 491.471 281.962 491.941 281.584 492.533C281.223 493.132 281.042 493.789 281.04 494.506C281.043 495.234 281.205 495.957 281.526 496.676ZM289.819 493.373C290.065 492.811 290.314 492.32 290.565 491.902C290.834 491.49 291.206 491.178 291.681 490.966C292.192 490.738 292.695 490.704 293.189 490.863C293.689 491.035 294.072 491.419 294.338 492.015C294.577 492.551 294.605 493.057 294.423 493.532C294.241 494.008 293.894 494.359 293.382 494.587C292.798 494.848 292.2 494.866 291.589 494.642C290.996 494.425 290.42 494.032 289.86 493.464L289.819 493.373ZM282.91 496.343C282.573 495.588 282.489 494.859 282.658 494.157C282.844 493.461 283.339 492.933 284.143 492.575C284.788 492.287 285.456 492.23 286.147 492.404C286.855 492.585 287.533 492.976 288.181 493.578L285.857 498.73C285.247 498.637 284.678 498.394 284.153 498.001C283.639 497.602 283.225 497.05 282.91 496.343ZM288.411 511.631L289.128 513.238L302.445 507.302L301.728 505.694L288.411 511.631ZM290.988 517.411L291.704 519.018L296.856 516.722L298.338 520.046L294.734 525.814L295.589 527.732L299.319 521.755C299.957 522.828 300.754 523.502 301.709 523.777C302.676 524.047 303.695 523.943 304.767 523.465C306.058 522.89 306.888 522.067 307.258 520.997C307.64 519.922 307.505 518.653 306.853 517.192L304.305 511.474L290.988 517.411ZM305.298 517.535C305.716 518.473 305.85 519.296 305.699 520.006C305.548 520.715 305.107 521.233 304.377 521.559L303.463 521.966C302.721 522.297 302.035 522.281 301.406 521.919C300.79 521.552 300.273 520.899 299.855 519.961L298.153 516.144L303.596 513.717L305.298 517.535ZM299.113 536.129C299.987 538.09 301.244 539.369 302.883 539.967C304.539 540.572 306.481 540.377 308.71 539.384L308.783 539.351C310.269 538.689 311.397 537.88 312.168 536.923C312.95 535.961 313.388 534.897 313.482 533.731C313.588 532.56 313.353 531.329 312.777 530.038C312.207 528.759 311.451 527.768 310.51 527.064C309.58 526.354 308.496 525.969 307.257 525.908C306.031 525.842 304.674 526.14 303.189 526.802L303.116 526.834C300.887 527.828 299.441 529.137 298.778 530.761C298.133 532.391 298.245 534.181 299.113 536.129ZM300.538 535.494C300.104 534.52 299.923 533.608 299.997 532.757C300.07 531.907 300.363 531.156 300.876 530.504C301.394 529.865 302.097 529.347 302.986 528.951L304.849 528.12C305.726 527.729 306.575 527.555 307.397 527.597C308.219 527.64 308.968 527.912 309.644 528.413C310.338 528.921 310.907 529.675 311.352 530.673C311.803 531.684 311.983 532.611 311.892 533.455C311.813 534.293 311.514 535.032 310.996 535.671C310.479 536.311 309.781 536.826 308.905 537.217L307.041 538.048C306.152 538.444 305.294 538.615 304.467 538.56C303.645 538.518 302.893 538.24 302.212 537.726C301.536 537.225 300.978 536.481 300.538 535.494ZM303.449 545.364L304.15 546.935L315.146 542.033L315.187 542.124L314.826 542.592L307.366 554.151L308.262 556.16L321.579 550.224L320.878 548.653L309.881 553.555L309.841 553.464L310.25 552.909L317.686 541.492L316.766 539.428L303.449 545.364ZM311.62 563.693L312.345 565.319L317.916 562.835L327.746 564.059L326.923 562.214L320.118 561.437L319.182 561.351L319.141 561.26L319.702 560.506L323.674 554.925L322.852 553.08L317.191 561.209L311.62 563.693Z" fill="#121212"/>
<rect x="64.6711" y="957.724" width="270" height="85" rx="42.5" transform="rotate(-26.6375 64.6711 957.724)" stroke="#D0D0D0"/>
<path d="M123.761 982.344L125.334 981.555L122.375 975.656L129.884 971.89L132.843 977.789L134.434 976.991L127.897 963.959L126.306 964.757L129.184 970.495L121.676 974.261L118.798 968.523L117.224 969.312L123.761 982.344ZM143.77 972.532C144.854 971.988 145.688 971.316 146.272 970.517C146.861 969.699 147.182 968.807 147.234 967.841C147.293 966.857 147.059 965.841 146.533 964.792L142.453 956.658L140.88 957.447L144.915 965.492C145.5 966.66 145.621 967.748 145.276 968.756C144.938 969.746 144.202 970.525 143.07 971.093C141.926 971.667 140.847 971.791 139.833 971.464C138.825 971.119 138.034 970.375 137.46 969.231L133.425 961.186L131.852 961.975L135.931 970.109C136.44 971.122 137.088 971.909 137.875 972.468C138.663 973.028 139.558 973.325 140.56 973.359C141.567 973.376 142.637 973.1 143.77 972.532ZM152.934 967.712L154.471 966.941L149.154 956.384L148.804 955.687L148.912 955.633L149.494 956.214L158.655 964.842L160.264 964.035L158.835 951.506L158.708 950.719L158.816 950.666L164.465 961.928L166.002 961.157L159.465 948.125L156.98 949.371L158.518 962.472L158.428 962.517L148.828 953.46L146.397 954.679L152.934 967.712ZM175.191 956.772C177.11 955.809 178.331 954.496 178.853 952.832C179.382 951.15 179.099 949.218 178.005 947.037L177.969 946.965C177.24 945.511 176.38 944.421 175.389 943.695C174.393 942.957 173.31 942.568 172.141 942.527C170.966 942.475 169.747 942.766 168.484 943.4C167.233 944.027 166.276 944.828 165.616 945.8C164.949 946.761 164.614 947.862 164.609 949.102C164.599 950.33 164.958 951.672 165.688 953.126L165.724 953.197C166.818 955.378 168.191 956.763 169.843 957.351C171.502 957.921 173.284 957.728 175.191 956.772ZM174.492 955.377C173.538 955.856 172.635 956.077 171.782 956.043C170.93 956.008 170.166 955.75 169.492 955.267C168.829 954.779 168.28 954.1 167.843 953.23L166.929 951.407C166.498 950.549 166.286 949.708 166.291 948.885C166.295 948.062 166.533 947.302 167.003 946.604C167.479 945.887 168.206 945.284 169.183 944.794C170.173 944.298 171.091 944.076 171.937 944.129C172.778 944.169 173.53 944.434 174.192 944.922C174.855 945.41 175.401 946.083 175.832 946.941L176.746 948.765C177.183 949.635 177.392 950.484 177.376 951.313C177.371 952.136 177.127 952.899 176.645 953.604C176.175 954.302 175.457 954.893 174.492 955.377ZM189.475 949.607C190.56 949.063 191.394 948.391 191.977 947.592C192.566 946.774 192.887 945.882 192.94 944.916C192.998 943.932 192.764 942.916 192.238 941.867L188.158 933.733L186.585 934.522L190.62 942.567C191.206 943.735 191.327 944.823 190.982 945.831C190.643 946.821 189.908 947.6 188.776 948.168C187.632 948.742 186.553 948.866 185.538 948.539C184.53 948.194 183.739 947.45 183.165 946.306L179.13 938.261L177.557 939.05L181.637 947.184C182.145 948.197 182.793 948.984 183.581 949.543C184.369 950.103 185.264 950.4 186.265 950.434C187.273 950.451 188.343 950.175 189.475 949.607ZM198.64 944.787L200.213 943.998L197.684 938.956L200.938 937.324L206.863 940.662L208.74 939.72L202.6 936.267C203.643 935.58 204.28 934.753 204.511 933.787C204.736 932.809 204.586 931.795 204.06 930.746C203.426 929.483 202.567 928.691 201.481 928.37C200.389 928.038 199.129 928.23 197.698 928.948L192.103 931.754L198.64 944.787ZM198.112 930.486C199.029 930.025 199.846 929.854 200.562 929.973C201.278 930.091 201.815 930.508 202.173 931.223L202.622 932.117C202.986 932.844 203.002 933.529 202.669 934.174C202.33 934.806 201.702 935.353 200.784 935.813L197.048 937.687L194.375 932.36L198.112 930.486ZM219.786 934.404C220.608 933.992 221.299 933.451 221.859 932.782C222.43 932.108 222.793 931.344 222.947 930.491L225.31 931.41L227.115 930.504L223.392 929.06C223.428 928.535 223.382 927.954 223.256 927.316C223.124 926.666 222.959 926.07 222.762 925.528L224.55 924.631L223.994 923.522L221.098 924.975C221.349 925.505 221.57 926.11 221.762 926.79C221.959 927.452 222.061 928.042 222.068 928.561L217.307 926.697L217.263 926.608C217.935 925.897 218.394 925.131 218.637 924.307C218.892 923.478 218.82 922.664 218.419 921.866C218.138 921.306 217.762 920.883 217.291 920.597C216.813 920.3 216.282 920.148 215.698 920.143C215.126 920.132 214.547 920.273 213.963 920.566C213.308 920.894 212.793 921.31 212.418 921.811C212.055 922.306 211.849 922.849 211.803 923.439C211.75 924.018 211.867 924.593 212.154 925.165C212.44 925.737 212.841 926.193 213.354 926.532C213.867 926.871 214.488 927.187 215.215 927.478C214.447 928.385 213.98 929.313 213.815 930.261C213.643 931.198 213.757 932.065 214.158 932.864C214.54 933.627 215.036 934.183 215.645 934.534C216.259 934.868 216.924 935.019 217.64 934.988C218.367 934.951 219.083 934.757 219.786 934.404ZM216.108 926.269C215.536 926.049 215.034 925.824 214.605 925.592C214.181 925.342 213.853 924.984 213.62 924.519C213.368 924.019 213.311 923.518 213.448 923.017C213.596 922.51 213.962 922.11 214.546 921.817C215.071 921.554 215.575 921.503 216.058 921.663C216.541 921.824 216.908 922.154 217.159 922.655C217.446 923.227 217.492 923.823 217.296 924.443C217.106 925.046 216.74 925.64 216.198 926.225L216.108 926.269ZM219.39 933.036C218.652 933.407 217.927 933.524 217.217 933.388C216.514 933.233 215.964 932.763 215.57 931.977C215.253 931.345 215.166 930.68 215.308 929.982C215.456 929.267 215.816 928.571 216.388 927.897L221.641 929.983C221.576 930.597 221.359 931.176 220.99 931.719C220.615 932.25 220.082 932.689 219.39 933.036ZM234.412 926.844L235.985 926.055L229.448 913.023L227.875 913.812L234.412 926.844ZM240.068 924.007L241.641 923.218L239.113 918.177L242.366 916.545L248.292 919.882L250.169 918.941L244.028 915.487C245.071 914.8 245.708 913.973 245.939 913.007C246.165 912.029 246.014 911.015 245.488 909.967C244.855 908.703 243.995 907.911 242.909 907.591C241.818 907.258 240.557 907.451 239.127 908.168L233.531 910.975L240.068 924.007ZM239.54 909.706C240.458 909.246 241.274 909.075 241.99 909.193C242.706 909.311 243.243 909.728 243.602 910.443L244.05 911.337C244.415 912.064 244.431 912.75 244.097 913.394C243.758 914.027 243.13 914.573 242.212 915.033L238.476 916.907L235.804 911.58L239.54 909.706ZM258.397 915.037C260.316 914.075 261.537 912.762 262.059 911.097C262.588 909.415 262.305 907.483 261.211 905.302L261.175 905.231C260.446 903.777 259.586 902.687 258.595 901.961C257.598 901.222 256.516 900.833 255.347 900.793C254.172 900.741 252.953 901.032 251.69 901.665C250.438 902.293 249.482 903.093 248.822 904.066C248.155 905.027 247.82 906.127 247.815 907.368C247.805 908.596 248.164 909.937 248.894 911.391L248.929 911.463C250.023 913.644 251.397 915.028 253.049 915.617C254.707 916.187 256.49 915.994 258.397 915.037ZM257.698 913.643C256.744 914.121 255.841 914.343 254.988 914.308C254.136 914.274 253.372 914.015 252.698 913.533C252.035 913.045 251.486 912.366 251.049 911.496L250.135 909.672C249.704 908.814 249.492 907.974 249.496 907.151C249.501 906.328 249.739 905.567 250.209 904.869C250.685 904.153 251.412 903.55 252.389 903.06C253.378 902.563 254.296 902.342 255.143 902.394C255.984 902.435 256.736 902.699 257.398 903.187C258.061 903.676 258.607 904.349 259.038 905.207L259.952 907.03C260.389 907.9 260.598 908.75 260.581 909.579C260.577 910.401 260.333 911.165 259.851 911.869C259.381 912.567 258.663 913.159 257.698 913.643ZM267.425 910.285L268.962 909.514L263.564 898.752L263.654 898.707L264.137 899.047L276.024 905.972L277.99 904.986L271.454 891.953L269.916 892.725L275.314 903.487L275.225 903.531L274.652 903.148L262.908 896.24L260.888 897.253L267.425 910.285ZM285.362 901.288L286.953 900.49L284.218 895.038L284.993 885.162L283.188 886.068L282.722 892.902L282.679 893.841L282.589 893.886L281.81 893.359L276.054 889.646L274.249 890.551L282.627 895.836L285.362 901.288Z" fill="#121212"/>
<rect x="8.64706" y="339.627" width="326" height="85" rx="42.5" transform="rotate(-21.217 8.64706 339.627)" fill="#121212"/>
<rect x="8.64706" y="339.627" width="326" height="85" rx="42.5" transform="rotate(-21.217 8.64706 339.627)" stroke="#D0D0D0"/>
<path d="M63.954 370.182L67.7202 368.72C68.205 368.532 68.5458 368.25 68.7428 367.873C68.9474 367.479 68.9459 367.014 68.7384 366.48L64.0844 354.492L62.425 355.136L67.137 367.273L63.3895 368.728L63.954 370.182ZM73.5955 366.439L82.9922 362.791L82.4277 361.337L74.6716 364.348L72.797 359.519L79.6394 356.863L79.1111 355.502L72.2686 358.158L70.5242 353.665L78.2803 350.654L77.7157 349.2L68.319 352.848L73.5955 366.439ZM86.286 361.513L87.9267 360.876L85.8856 355.618L89.2789 354.301L94.8624 358.183L96.8201 357.423L91.0336 353.405C92.1365 352.82 92.8487 352.057 93.1703 351.117C93.487 350.164 93.4331 349.141 93.0085 348.047C92.497 346.73 91.716 345.86 90.6655 345.438C89.6102 345.004 88.3367 345.077 86.8452 345.656L81.0095 347.921L86.286 361.513ZM87.1114 347.226C88.0685 346.854 88.8977 346.761 89.599 346.946C90.3003 347.132 90.7957 347.597 91.0853 348.343L91.4472 349.275C91.7415 350.034 91.6924 350.718 91.2999 351.328C90.9026 351.925 90.2254 352.41 89.2684 352.782L85.3717 354.294L83.2148 348.738L87.1114 347.226ZM100.124 356.141L101.764 355.504L100.281 351.682L101.808 347.935L108.905 352.732L110.919 351.95L102.498 346.23L105.456 338.431L103.423 339.22L99.4843 349.631L96.4878 341.912L94.8471 342.549L100.124 356.141ZM117.191 349.729C118.223 349.329 119.068 348.836 119.728 348.251C120.395 347.649 120.827 346.974 121.023 346.225C121.226 345.46 121.154 344.63 120.807 343.735C120.536 343.039 120.182 342.511 119.742 342.153C119.315 341.789 118.828 341.549 118.282 341.432C117.736 341.315 117.15 341.278 116.523 341.321C115.909 341.36 115.281 341.439 114.641 341.558C113.929 341.677 113.271 341.769 112.666 341.832C112.074 341.89 111.558 341.833 111.119 341.66C110.68 341.487 110.35 341.115 110.128 340.543C109.858 339.847 109.912 339.196 110.293 338.591C110.68 337.969 111.334 337.479 112.254 337.122C113.323 336.707 114.21 336.634 114.915 336.904C115.621 337.173 116.154 337.717 116.514 338.536L118.23 337.87C117.732 336.661 116.927 335.858 115.814 335.461C114.696 335.051 113.348 335.152 111.77 335.765C110.8 336.141 110.013 336.618 109.408 337.197C108.803 337.775 108.404 338.423 108.211 339.142C108.03 339.856 108.092 340.604 108.396 341.387C108.714 342.207 109.167 342.783 109.752 343.113C110.346 343.426 111.023 343.585 111.783 343.591C112.555 343.591 113.371 343.518 114.229 343.37C114.966 343.242 115.654 343.153 116.293 343.105C116.928 343.045 117.484 343.115 117.962 343.316C118.448 343.499 118.814 343.907 119.06 344.541C119.359 345.312 119.325 346.033 118.956 346.706C118.583 347.365 117.831 347.915 116.7 348.354C115.619 348.774 114.667 348.864 113.845 348.626C113.035 348.382 112.398 347.736 111.933 346.686L110.237 347.345C110.57 348.202 111.059 348.892 111.705 349.413C112.346 349.923 113.127 350.22 114.047 350.306C114.975 350.375 116.023 350.183 117.191 349.729ZM134.725 342.923C135.756 342.522 136.602 342.029 137.262 341.444C137.929 340.842 138.361 340.167 138.556 339.418C138.76 338.653 138.688 337.823 138.34 336.928C138.07 336.232 137.715 335.704 137.276 335.346C136.849 334.982 136.362 334.742 135.816 334.625C135.27 334.508 134.684 334.471 134.057 334.514C133.442 334.553 132.815 334.632 132.175 334.752C131.463 334.871 130.805 334.962 130.2 335.025C129.608 335.083 129.092 335.026 128.653 334.853C128.214 334.68 127.883 334.308 127.661 333.736C127.391 333.04 127.446 332.389 127.826 331.784C128.214 331.162 128.868 330.672 129.787 330.315C130.856 329.9 131.744 329.827 132.449 330.097C133.154 330.367 133.687 330.911 134.048 331.729L135.763 331.063C135.265 329.854 134.46 329.051 133.348 328.654C132.23 328.244 130.882 328.345 129.304 328.958C128.334 329.334 127.547 329.812 126.942 330.39C126.337 330.968 125.937 331.616 125.744 332.335C125.564 333.049 125.626 333.797 125.93 334.58C126.248 335.4 126.7 335.976 127.286 336.306C127.88 336.619 128.556 336.778 129.317 336.784C130.089 336.784 130.904 336.711 131.763 336.564C132.499 336.435 133.187 336.347 133.827 336.299C134.461 336.238 135.018 336.308 135.496 336.509C135.982 336.692 136.348 337.101 136.594 337.734C136.893 338.505 136.859 339.227 136.49 339.899C136.117 340.559 135.365 341.108 134.234 341.547C133.152 341.967 132.201 342.057 131.379 341.819C130.569 341.575 129.932 340.929 129.467 339.879L127.77 340.538C128.103 341.395 128.593 342.085 129.239 342.607C129.88 343.116 130.66 343.413 131.581 343.5C132.508 343.569 133.556 343.376 134.725 342.923ZM143.057 339.474L144.697 338.837L142.309 332.684L150.139 329.644L152.528 335.797L154.187 335.152L148.911 321.561L147.251 322.205L149.575 328.19L141.744 331.23L139.421 325.245L137.78 325.882L143.057 339.474ZM156.428 334.282L158.05 333.653L157.968 329.737L164.363 327.255L166.925 330.207L168.584 329.563L158.386 317.882L156.092 318.773L156.428 334.282ZM157.878 328.292L157.758 322.953L157.691 319.74L157.803 319.696L159.888 322.083L163.434 326.135L157.878 328.292ZM170.805 328.701L179.661 325.263L179.082 323.772L171.866 326.573L167.169 314.473L165.528 315.11L170.805 328.701ZM182.894 324.008L191.75 320.57L191.171 319.078L183.956 321.879L179.258 309.779L177.618 310.416L182.894 324.008ZM199.9 317.406L201.503 316.784L197.146 305.56L197.239 305.523L197.688 305.907L208.868 313.925L210.919 313.128L205.642 299.537L204.039 300.159L208.396 311.383L208.303 311.419L207.769 310.983L196.73 302.996L194.623 303.814L199.9 317.406ZM220.469 309.635C222.47 308.858 223.81 307.666 224.487 306.059C225.172 304.434 225.073 302.484 224.19 300.21L224.161 300.135C223.573 298.619 222.819 297.452 221.902 296.636C220.979 295.807 219.938 295.317 218.778 295.166C217.614 295.004 216.373 295.178 215.055 295.689C213.75 296.196 212.723 296.902 211.973 297.808C211.219 298.702 210.781 299.766 210.659 301C210.533 302.222 210.764 303.591 211.353 305.108L211.382 305.182C212.265 307.457 213.501 308.965 215.09 309.707C216.687 310.431 218.48 310.407 220.469 309.635ZM219.905 308.181C218.91 308.567 217.99 308.703 217.145 308.587C216.299 308.472 215.563 308.143 214.937 307.599C214.324 307.051 213.841 306.323 213.489 305.415L212.75 303.514C212.403 302.619 212.271 301.762 212.353 300.943C212.436 300.124 212.744 299.39 213.278 298.739C213.82 298.071 214.6 297.539 215.62 297.144C216.651 296.743 217.586 296.609 218.424 296.741C219.257 296.861 219.981 297.195 220.594 297.744C221.208 298.293 221.688 299.014 222.035 299.909L222.774 301.811C223.126 302.718 223.254 303.584 223.159 304.407C223.077 305.226 222.762 305.963 222.216 306.619C221.682 307.269 220.911 307.79 219.905 308.181ZM233.733 290.305L233.168 288.851L222.727 292.904L223.292 294.358L227.692 292.65L232.404 304.787L234.063 304.143L229.351 292.006L233.733 290.305ZM245.71 299.622L247.35 298.985L245.476 294.156L249.54 292.578C251.119 291.965 252.139 291.112 252.601 290.017C253.058 288.91 253.03 287.698 252.519 286.38C251.978 284.988 251.17 284.065 250.092 283.611C249.022 283.139 247.729 283.198 246.213 283.786L240.433 286.03L245.71 299.622ZM246.535 285.335C247.492 284.963 248.328 284.889 249.044 285.112C249.755 285.322 250.268 285.831 250.581 286.639L250.943 287.571C251.257 288.379 251.225 289.107 250.847 289.754C250.464 290.389 249.794 290.892 248.837 291.264L244.94 292.776L242.638 286.848L246.535 285.335ZM255.95 295.647L257.572 295.017L257.489 291.101L263.884 288.619L266.446 291.572L268.106 290.927L257.907 279.247L255.614 280.137L255.95 295.647ZM257.4 289.656L257.28 284.317L257.212 281.104L257.324 281.061L259.409 283.448L262.956 287.499L257.4 289.656ZM274.357 288.715C275.389 288.315 276.234 287.822 276.894 287.237C277.561 286.634 277.993 285.959 278.189 285.211C278.392 284.445 278.32 283.615 277.973 282.72C277.702 282.024 277.347 281.497 276.908 281.138C276.481 280.775 275.994 280.535 275.448 280.418C274.902 280.301 274.316 280.264 273.689 280.307C273.074 280.345 272.447 280.424 271.807 280.544C271.095 280.663 270.437 280.754 269.832 280.817C269.24 280.876 268.724 280.818 268.285 280.646C267.846 280.473 267.516 280.1 267.294 279.529C267.023 278.833 267.078 278.182 267.458 277.577C267.846 276.954 268.5 276.464 269.42 276.107C270.489 275.692 271.376 275.62 272.081 275.889C272.787 276.159 273.319 276.703 273.68 277.521L275.395 276.855C274.898 275.647 274.092 274.844 272.98 274.446C271.862 274.036 270.514 274.138 268.936 274.75C267.966 275.127 267.179 275.604 266.574 276.182C265.969 276.761 265.57 277.409 265.377 278.127C265.196 278.841 265.258 279.59 265.562 280.373C265.88 281.193 266.332 281.768 266.918 282.099C267.512 282.412 268.189 282.571 268.949 282.576C269.721 282.577 270.537 282.503 271.395 282.356C272.132 282.227 272.82 282.139 273.459 282.091C274.093 282.031 274.65 282.101 275.128 282.301C275.614 282.485 275.98 282.893 276.226 283.527C276.525 284.298 276.491 285.019 276.122 285.691C275.749 286.351 274.997 286.9 273.866 287.34C272.785 287.759 271.833 287.85 271.011 287.611C270.201 287.368 269.564 286.721 269.099 285.672L267.403 286.33C267.735 287.188 268.225 287.878 268.871 288.399C269.512 288.908 270.292 289.206 271.213 289.292C272.141 289.361 273.189 289.169 274.357 288.715ZM286.975 283.817C288.006 283.416 288.852 282.923 289.512 282.338C290.179 281.736 290.61 281.061 290.806 280.313C291.01 279.547 290.938 278.717 290.59 277.822C290.32 277.126 289.965 276.599 289.526 276.24C289.098 275.877 288.612 275.636 288.066 275.519C287.52 275.402 286.933 275.365 286.307 275.409C285.692 275.447 285.065 275.526 284.425 275.646C283.713 275.765 283.055 275.856 282.45 275.919C281.857 275.977 281.342 275.92 280.903 275.747C280.464 275.574 280.133 275.202 279.911 274.63C279.641 273.934 279.696 273.284 280.076 272.678C280.464 272.056 281.117 271.566 282.037 271.209C283.106 270.794 283.993 270.721 284.699 270.991C285.404 271.261 285.937 271.805 286.298 272.623L288.013 271.957C287.515 270.749 286.71 269.946 285.597 269.548C284.48 269.138 283.132 269.239 281.553 269.852C280.584 270.228 279.797 270.706 279.192 271.284C278.586 271.862 278.187 272.51 277.994 273.229C277.814 273.943 277.875 274.691 278.179 275.474C278.498 276.295 278.95 276.87 279.536 277.2C280.13 277.513 280.806 277.673 281.566 277.678C282.339 277.678 283.154 277.605 284.013 277.458C284.749 277.329 285.437 277.241 286.077 277.193C286.711 277.132 287.267 277.202 287.746 277.403C288.232 277.586 288.598 277.995 288.844 278.629C289.143 279.399 289.108 280.121 288.74 280.793C288.367 281.453 287.615 282.002 286.484 282.441C285.402 282.861 284.451 282.952 283.628 282.713C282.819 282.469 282.182 281.823 281.717 280.773L280.02 281.432C280.353 282.29 280.843 282.979 281.488 283.501C282.13 284.01 282.91 284.308 283.83 284.394C284.758 284.463 285.806 284.27 286.975 283.817Z" fill="white"/>
<rect x="100.669" y="703.704" width="191" height="85" rx="42.5" transform="rotate(39.4119 100.669 703.704)" fill="#121212"/>
<rect x="100.669" y="703.704" width="191" height="85" rx="42.5" transform="rotate(39.4119 100.669 703.704)" stroke="#D0D0D0"/>
<path d="M105.522 770.725C106.377 771.427 107.221 771.923 108.054 772.211C108.907 772.497 109.707 772.541 110.455 772.345C111.222 772.147 111.91 771.677 112.519 770.935C112.993 770.358 113.279 769.791 113.376 769.232C113.483 768.681 113.454 768.139 113.288 767.606C113.122 767.073 112.866 766.544 112.521 766.019C112.187 765.502 111.81 764.994 111.392 764.495C110.939 763.933 110.537 763.404 110.185 762.908C109.844 762.42 109.641 761.943 109.576 761.475C109.511 761.008 109.674 760.538 110.063 760.064C110.537 759.487 111.131 759.216 111.845 759.25C112.578 759.282 113.325 759.612 114.087 760.238C114.973 760.966 115.472 761.704 115.583 762.451C115.694 763.198 115.481 763.929 114.945 764.645L116.366 765.813C117.175 764.786 117.48 763.691 117.281 762.526C117.09 761.351 116.341 760.226 115.032 759.151C114.229 758.491 113.427 758.039 112.626 757.795C111.826 757.551 111.065 757.522 110.344 757.706C109.633 757.898 109.011 758.319 108.478 758.968C107.919 759.648 107.64 760.324 107.639 760.997C107.658 761.668 107.851 762.336 108.219 763.001C108.597 763.674 109.061 764.349 109.611 765.024C110.084 765.603 110.498 766.16 110.854 766.693C111.218 767.217 111.429 767.736 111.489 768.251C111.568 768.764 111.391 769.284 110.96 769.809C110.435 770.448 109.789 770.771 109.023 770.78C108.265 770.778 107.417 770.392 106.48 769.622C105.583 768.886 105.038 768.101 104.842 767.267C104.658 766.442 104.908 765.57 105.595 764.65L104.189 763.495C103.605 764.205 103.244 764.97 103.106 765.789C102.977 766.597 103.1 767.423 103.477 768.268C103.872 769.11 104.553 769.929 105.522 770.725ZM112.614 776.294L113.974 777.411L123.23 766.147L121.871 765.029L112.614 776.294ZM117.503 780.312L118.832 781.404L126.476 772.101L126.553 772.165L126.439 772.744L124.935 786.419L126.635 787.816L135.892 776.551L134.563 775.459L126.919 784.762L126.842 784.698L126.96 784.019L128.506 770.482L126.76 769.047L117.503 780.312ZM134.363 794.426C135.239 795.145 136.149 795.634 137.093 795.892C138.056 796.148 138.986 796.171 139.885 795.96C140.802 795.747 141.615 795.293 142.324 794.599L140.917 793.443C140.359 793.934 139.754 794.239 139.103 794.36C138.46 794.47 137.816 794.424 137.171 794.222C136.526 794.02 135.92 793.686 135.354 793.22C134.53 792.543 133.96 791.808 133.646 791.014C133.331 790.221 133.258 789.418 133.425 788.606C133.602 787.803 133.999 787.025 134.617 786.273L135.912 784.697C136.522 783.955 137.204 783.419 137.958 783.09C138.712 782.76 139.503 782.669 140.332 782.815C141.18 782.959 142.026 783.378 142.871 784.073C143.427 784.53 143.862 785.051 144.175 785.636C144.507 786.219 144.681 786.837 144.697 787.489C144.724 788.149 144.552 788.811 144.181 789.472L145.587 790.628C146.121 789.789 146.404 788.909 146.437 787.987C146.47 787.065 146.268 786.165 145.832 785.289C145.404 784.403 144.747 783.595 143.861 782.867C142.78 781.979 141.66 781.43 140.503 781.221C139.354 781.002 138.212 781.142 137.077 781.641C135.95 782.13 134.87 783.003 133.838 784.26L133.787 784.322C132.238 786.207 131.53 788.024 131.663 789.773C131.815 791.52 132.715 793.071 134.363 794.426ZM141.873 800.338L149.661 806.738L150.651 805.532L144.223 800.25L147.512 796.248L153.183 800.908L154.11 799.78L148.439 795.12L151.499 791.396L157.927 796.678L158.918 795.473L151.13 789.073L141.873 800.338ZM152.391 808.981L153.751 810.098L157.331 805.741L160.144 808.052L159.499 814.822L161.121 816.155L161.785 809.142C162.836 809.816 163.85 810.062 164.827 809.881C165.813 809.69 166.678 809.141 167.423 808.235C168.32 807.143 168.695 806.036 168.547 804.913C168.408 803.781 167.72 802.706 166.484 801.691L161.648 797.716L152.391 808.981ZM165.246 802.693C166.04 803.345 166.527 804.022 166.71 804.724C166.892 805.426 166.729 806.086 166.221 806.704L165.586 807.477C165.07 808.105 164.45 808.398 163.726 808.355C163.01 808.302 162.256 807.949 161.462 807.297L158.233 804.644L162.017 800.039L165.246 802.693ZM163.859 818.405L165.219 819.522L174.476 808.258L173.116 807.14L163.859 818.405ZM184.092 818.179L185.082 816.974L176.429 809.863L175.438 811.068L179.085 814.065L170.819 824.124L172.194 825.254L180.46 815.195L184.092 818.179ZM180.631 832.187L182.006 833.317L185.879 828.604L195.218 825.303L193.658 824.021L187.223 826.37L186.347 826.711L186.27 826.648L186.435 825.722L187.492 818.954L185.932 817.672L184.503 827.474L180.631 832.187Z" fill="white"/>
<line x1="28" y1="1091.5" x2="347" y2="1091.5" stroke="#D0D0D0"/>
</g>
<defs>
<clipPath id="clip0_292_3125">
<rect width="375" height="1092" fill="white"/>
</clipPath>
</defs>
</svg>
