<svg width="955" height="754" viewBox="0 0 955 754" fill="none" xmlns="http://www.w3.org/2000/svg">
<rect x="360.789" y="0.570163" width="371" height="87" rx="43.5" transform="rotate(8.73908 360.789 0.570163)" fill="#121212"/>
<rect x="360.789" y="0.570163" width="371" height="87" rx="43.5" transform="rotate(8.73908 360.789 0.570163)" stroke="#D0D0D0"/>
<path d="M394.71 57.8895L396.797 58.2104L397.742 52.0666L402.913 52.8615C404.921 53.1702 406.493 52.8939 407.63 52.0325C408.768 51.1553 409.466 49.8785 409.724 48.2022C409.996 46.431 409.708 44.9865 408.86 43.8687C408.03 42.7375 406.651 42.0236 404.722 41.727L397.368 40.5966L394.71 57.8895ZM404.129 43.5299C405.346 43.7171 406.261 44.1409 406.871 44.8014C407.485 45.446 407.712 46.2823 407.554 47.3102L407.372 48.4963C407.214 49.5242 406.744 50.2614 405.963 50.708C405.185 51.1387 404.187 51.2605 402.969 51.0733L398.011 50.3112L399.171 42.7678L404.129 43.5299ZM407.738 59.8922L409.802 60.2095L412.062 56.089L420.199 57.3398L421.093 61.9452L423.204 62.2697L419.6 44.0142L416.682 43.5657L407.738 59.8922ZM412.836 54.5325L415.909 48.9103L417.765 45.5289L417.907 45.5508L418.645 49.2822L419.905 55.6191L412.836 54.5325ZM431.03 63.7154C432.342 63.9172 433.517 63.9116 434.553 63.6985C435.608 63.4722 436.461 63.0287 437.113 62.368C437.783 61.694 438.206 60.7877 438.381 59.6491C438.517 58.7635 438.464 58.0026 438.222 57.3664C437.995 56.7327 437.633 56.1914 437.136 55.7426C436.638 55.2938 436.051 54.904 435.373 54.5732C434.711 54.2448 434.012 53.9511 433.274 53.6921C432.463 53.3893 431.724 53.0896 431.057 52.7928C430.407 52.4985 429.905 52.13 429.552 51.6873C429.199 51.2445 429.079 50.6594 429.19 49.932C429.326 49.0464 429.773 48.4028 430.531 48.0013C431.307 47.5864 432.28 47.4689 433.451 47.6487C434.811 47.8578 435.777 48.3139 436.348 49.0169C436.92 49.7199 437.149 50.6049 437.033 51.6717L439.215 52.0072C439.422 50.4525 439.066 49.1352 438.148 48.0551C437.231 46.9592 435.769 46.2568 433.761 45.9481C432.527 45.7585 431.423 45.7829 430.447 46.0215C429.472 46.26 428.668 46.695 428.037 47.3264C427.421 47.9603 427.037 48.7754 426.884 49.7717C426.723 50.8154 426.849 51.6845 427.26 52.3791C427.69 53.0603 428.298 53.6313 429.085 54.0922C429.888 54.5556 430.78 54.9679 431.76 55.3291C432.603 55.6367 433.371 55.9572 434.065 56.2904C434.761 56.6078 435.297 57.014 435.674 57.5091C436.07 57.9907 436.206 58.6348 436.082 59.4414C435.931 60.4218 435.463 61.1512 434.677 61.6293C433.893 62.0917 432.782 62.2123 431.343 61.991C429.967 61.7795 428.924 61.3034 428.212 60.5627C427.516 59.8244 427.241 58.7704 427.387 57.4006L425.228 57.0688C425.06 58.16 425.156 59.1702 425.515 60.0996C425.876 61.0131 426.51 61.7903 427.415 62.4313C428.338 63.0589 429.543 63.4869 431.03 63.7154ZM447.083 66.1832C448.396 66.3849 449.57 66.3793 450.607 66.1663C451.661 65.9399 452.515 65.4964 453.166 64.8358C453.837 64.1618 454.259 63.2555 454.434 62.1169C454.57 61.2313 454.517 60.4704 454.275 59.8342C454.049 59.2004 453.687 58.6592 453.189 58.2104C452.692 57.7615 452.104 57.3717 451.427 57.0409C450.765 56.7126 450.065 56.4189 449.328 56.1599C448.517 55.8571 447.778 55.5573 447.111 55.2606C446.46 54.9663 445.958 54.5978 445.605 54.155C445.253 53.7123 445.132 53.1272 445.244 52.3997C445.38 51.5141 445.827 50.8705 446.585 50.469C447.361 50.0541 448.334 49.9366 449.504 50.1165C450.864 50.3256 451.83 50.7816 452.402 51.4847C452.974 52.1877 453.202 53.0726 453.087 54.1395L455.269 54.475C455.476 52.9203 455.12 51.6029 454.201 50.5228C453.285 49.4269 451.823 48.7246 449.814 48.4159C448.581 48.2262 447.476 48.2507 446.501 48.4893C445.525 48.7278 444.722 49.1628 444.09 49.7942C443.475 50.428 443.091 51.2431 442.938 52.2394C442.777 53.2832 442.903 54.1523 443.314 54.8469C443.743 55.528 444.352 56.0991 445.139 56.56C445.942 57.0234 446.833 57.4356 447.814 57.7968C448.657 58.1045 449.425 58.4249 450.119 58.7581C450.814 59.0755 451.351 59.4818 451.728 59.9768C452.123 60.4585 452.259 61.1026 452.135 61.9091C451.984 62.8896 451.516 63.6189 450.73 64.0971C449.947 64.5594 448.836 64.68 447.397 64.4588C446.021 64.2473 444.977 63.7712 444.265 63.0305C443.57 62.2921 443.294 61.2381 443.44 59.8684L441.282 59.5365C441.114 60.6277 441.21 61.638 441.569 62.5673C441.93 63.4808 442.563 64.2581 443.468 64.899C444.392 65.5266 445.597 65.9547 447.083 66.1832ZM457.812 67.5896L459.9 67.9105L462.558 50.6176L460.47 50.2967L457.812 67.5896ZM471.947 70.0052C474.493 70.3966 476.6 69.9596 478.268 68.6943C479.953 67.4156 481.019 65.3293 481.464 62.4353L481.478 62.3404C481.775 60.411 481.691 58.7469 481.226 57.3481C480.763 55.9334 479.974 54.8003 478.859 53.949C477.746 53.0818 476.351 52.5193 474.675 52.2616C473.014 52.0064 471.523 52.1252 470.2 52.618C468.881 53.095 467.788 53.9388 466.922 55.1493C466.058 56.3439 465.478 57.9059 465.182 59.8353L465.167 59.9301C464.722 62.8242 465.104 65.1329 466.312 66.8565C467.538 68.5667 469.417 69.6163 471.947 70.0052ZM472.231 68.155C470.966 67.9605 469.929 67.5501 469.118 66.9237C468.308 66.2973 467.741 65.514 467.416 64.5737C467.107 63.6358 467.041 62.5897 467.218 61.4353L467.59 59.0157C467.765 57.8771 468.141 56.9069 468.717 56.1052C469.294 55.3035 470.055 54.7243 471 54.3678C471.963 53.9979 473.093 53.9126 474.39 54.1119C475.703 54.3137 476.755 54.7344 477.547 55.3742C478.341 55.9981 478.893 56.779 479.202 57.7169C479.511 58.6547 479.578 59.693 479.403 60.8316L479.031 63.2512C478.854 64.4056 478.469 65.3825 477.877 66.1818C477.3 66.9835 476.532 67.5614 475.571 67.9155C474.625 68.2721 473.512 68.3519 472.231 68.155ZM484.082 71.6278L486.122 71.9414L488.317 57.6611L488.436 57.6793L488.673 58.3471L495.492 73.3817L498.101 73.7828L500.759 56.4899L498.719 56.1763L496.524 70.4566L496.406 70.4384L496.112 69.6647L489.421 54.7469L486.74 54.3349L484.082 71.6278ZM509.749 75.5733L511.837 75.8942L514.495 58.6013L512.407 58.2804L509.749 75.5733ZM522.579 77.7884C523.892 77.9902 525.066 77.9845 526.103 77.7715C527.157 77.5451 528.011 77.1016 528.663 76.441C529.333 75.767 529.755 74.8607 529.93 73.7221C530.066 72.8365 530.013 72.0756 529.771 71.4394C529.545 70.8057 529.183 70.2644 528.685 69.8156C528.188 69.3668 527.6 68.977 526.923 68.6462C526.261 68.3178 525.561 68.0241 524.824 67.7651C524.013 67.4623 523.274 67.1625 522.607 66.8658C521.956 66.5715 521.454 66.203 521.102 65.7602C520.749 65.3175 520.628 64.7324 520.74 64.0049C520.876 63.1193 521.323 62.4758 522.081 62.0742C522.857 61.6593 523.83 61.5418 525 61.7217C526.36 61.9308 527.326 62.3868 527.898 63.0899C528.47 63.7929 528.698 64.6779 528.583 65.7447L530.765 66.0802C530.972 64.5255 530.616 63.2081 529.697 62.128C528.781 61.0321 527.319 60.3298 525.31 60.0211C524.077 59.8315 522.972 59.8559 521.997 60.0945C521.021 60.333 520.218 60.768 519.587 61.3994C518.971 62.0333 518.587 62.8483 518.434 63.8446C518.273 64.8884 518.399 65.7575 518.81 66.4521C519.239 67.1332 519.848 67.7043 520.635 68.1652C521.438 68.6286 522.329 69.0409 523.31 69.402C524.153 69.7097 524.921 70.0301 525.615 70.3634C526.31 70.6808 526.847 71.087 527.224 71.5821C527.619 72.0637 527.755 72.7078 527.631 73.5143C527.481 74.4948 527.012 75.2242 526.226 75.7023C525.443 76.1647 524.332 76.2852 522.893 76.064C521.517 75.8525 520.473 75.3764 519.761 74.6357C519.066 73.8974 518.791 72.8433 518.936 71.4736L516.778 71.1418C516.61 72.233 516.706 73.2432 517.065 74.1725C517.426 75.0861 518.059 75.8633 518.964 76.5043C519.888 77.1318 521.093 77.5599 522.579 77.7884ZM546.192 81.4182C548.738 81.8095 550.845 81.3726 552.513 80.1073C554.199 78.8286 555.264 76.7422 555.709 73.8482L555.723 73.7533C556.02 71.824 555.936 70.1599 555.471 68.761C555.009 67.3463 554.22 66.2133 553.104 65.3619C551.991 64.4947 550.596 63.9323 548.92 63.6746C547.259 63.4193 545.768 63.5381 544.446 64.0309C543.126 64.508 542.033 65.3517 541.167 66.5622C540.303 67.7569 539.723 69.3189 539.427 71.2482L539.412 71.3431C538.967 74.2371 539.349 76.5459 540.557 78.2694C541.784 79.9796 543.662 81.0292 546.192 81.4182ZM546.477 79.5679C545.211 79.3734 544.174 78.963 543.364 78.3366C542.553 77.7102 541.986 76.9269 541.661 75.9866C541.352 75.0488 541.286 74.0026 541.463 72.8482L541.835 70.4286C542.01 69.29 542.386 68.3198 542.963 67.5181C543.539 66.7164 544.3 66.1373 545.245 65.7807C546.208 65.4108 547.339 65.3255 548.635 65.5248C549.948 65.7266 551 66.1474 551.792 66.7871C552.587 67.4111 553.138 68.192 553.447 69.1298C553.757 70.0677 553.824 71.1059 553.649 72.2445L553.277 74.6641C553.099 75.8186 552.714 76.7954 552.122 77.5947C551.545 78.3964 550.777 78.9743 549.816 79.3284C548.871 79.685 547.758 79.7648 546.477 79.5679ZM565.146 84.3317C566.585 84.5529 567.868 84.4749 568.994 84.0977C570.139 83.7071 571.072 83.0574 571.795 82.1486C572.535 81.2264 573.013 80.0695 573.227 78.6778L574.886 67.8846L572.798 67.5637L571.157 78.2384C570.919 79.7882 570.281 80.9366 569.244 81.6836C568.225 82.4172 566.964 82.6686 565.461 82.4377C563.943 82.2043 562.801 81.5755 562.036 80.5514C561.289 79.5138 561.032 78.236 561.266 76.7178L562.907 66.0432L560.819 65.7223L559.16 76.5155C558.953 77.8597 559.041 79.0792 559.423 80.174C559.805 81.2687 560.474 82.181 561.431 82.9108C562.405 83.6271 563.644 84.1008 565.146 84.3317ZM577.462 85.9821L579.549 86.3029L580.577 79.6135L584.895 80.2772L588.373 87.6594L590.864 88.0423L587.256 80.3973C588.753 80.4494 589.951 80.0831 590.848 79.2984C591.748 78.4979 592.305 77.4018 592.519 76.0101C592.777 74.3338 592.486 72.9617 591.647 71.8937C590.81 70.81 589.442 70.1222 587.545 69.8305L580.12 68.6892L577.462 85.9821ZM586.881 71.6224C588.098 71.8096 589.016 72.2097 589.634 72.8227C590.252 73.4358 590.488 74.2167 590.342 75.1655L590.16 76.3516C590.012 77.3163 589.551 77.9982 588.777 78.3973C588.006 78.7805 587.012 78.8786 585.794 78.6914L580.836 77.9293L581.923 70.8603L586.881 71.6224ZM607.974 90.9153C609.318 91.1219 610.557 91.0695 611.689 90.7579C612.84 90.433 613.814 89.8867 614.612 89.119C615.428 88.3379 615.99 87.372 616.296 86.2212L614.137 85.8893C613.861 86.7372 613.424 87.4228 612.826 87.9459C612.23 88.4533 611.537 88.8 610.748 88.9863C609.958 89.1725 609.128 89.1987 608.259 89.065C606.994 88.8705 605.956 88.4601 605.146 87.8337C604.335 87.2074 603.768 86.424 603.443 85.4838C603.134 84.5459 603.068 83.4998 603.245 82.3453L603.617 79.9257C603.792 78.7871 604.168 77.8169 604.745 77.0152C605.321 76.2135 606.082 75.6344 607.027 75.2778C607.991 74.9079 609.121 74.8226 610.417 75.022C611.271 75.1532 612.039 75.425 612.72 75.8373C613.42 76.2362 613.978 76.7671 614.394 77.4301C614.826 78.0954 615.053 78.883 615.075 79.7929L617.233 80.1248C617.271 78.9326 617.024 77.8506 616.494 76.8787C615.963 75.9069 615.205 75.1023 614.218 74.465C613.234 73.8119 612.062 73.3808 610.702 73.1717C609.041 72.9164 607.55 73.0352 606.228 73.5281C604.908 74.0051 603.815 74.8488 602.949 76.0593C602.086 77.254 601.505 78.816 601.209 80.7453L601.194 80.8402C600.749 83.7342 601.131 86.043 602.339 87.7666C603.566 89.4768 605.444 90.5263 607.974 90.9153ZM619.345 92.4203L621.432 92.7412L622.46 86.0518L626.778 86.7154L630.256 94.0977L632.747 94.4805L629.139 86.8356C630.636 86.8877 631.834 86.5214 632.731 85.7366C633.632 84.9361 634.189 83.84 634.402 82.4484C634.66 80.772 634.369 79.3999 633.53 78.332C632.693 77.2482 631.325 76.5605 629.428 76.2688L622.003 75.1274L619.345 92.4203ZM628.764 78.0607C629.981 78.2479 630.899 78.648 631.517 79.261C632.135 79.874 632.371 80.6549 632.226 81.6038L632.043 82.7899C631.895 83.7545 631.434 84.4364 630.66 84.8355C629.889 85.2188 628.895 85.3168 627.677 85.1297L622.719 84.3675L623.806 77.2986L628.764 78.0607ZM634.412 94.7364L636.475 95.0536L638.736 90.9332L646.872 92.1839L647.767 96.7893L649.878 97.1139L646.274 78.8583L643.356 78.4098L634.412 94.7364ZM639.509 89.3767L642.583 83.7544L644.438 80.373L644.581 80.3949L645.318 84.1263L646.578 90.4633L639.509 89.3767ZM652.703 97.5481L654.79 97.869L655.946 90.3493L664.747 91.7022L665.017 89.9468L656.216 88.5939L657.164 82.4264L666.914 83.9251L667.198 82.0748L655.361 80.2552L652.703 97.5481ZM681.856 86.222L682.14 84.3717L668.856 82.3297L668.572 84.18L674.17 85.0405L671.796 100.483L673.907 100.808L676.281 85.365L681.856 86.222Z" fill="white"/>
<rect x="396.19" y="200.474" width="219" height="87" rx="43.5" transform="rotate(-23.1031 396.19 200.474)" fill="white"/>
<rect x="396.19" y="200.474" width="219" height="87" rx="43.5" transform="rotate(-23.1031 396.19 200.474)" stroke="#D0D0D0"/>
<path d="M455.247 231.271L461.251 228.709C462.752 228.069 463.943 227.231 464.823 226.194C465.703 225.158 466.204 223.927 466.326 222.5C466.442 221.059 466.104 219.412 465.313 217.557L465.238 217.381C464.101 214.717 462.592 213.013 460.708 212.268C458.819 211.508 456.711 211.625 454.386 212.617L448.382 215.178L455.247 231.271ZM456.455 228.72L451.059 216.071L455.099 214.348C456.909 213.576 458.459 213.479 459.75 214.059C461.05 214.618 462.036 215.685 462.707 217.26L463.659 219.489C464.381 221.182 464.455 222.681 463.881 223.987C463.316 225.272 462.187 226.275 460.495 226.997L456.455 228.72ZM472.407 223.95L474.349 223.122L467.484 207.029L465.542 207.858L472.407 223.95ZM479.392 220.971L489.877 216.498L489.124 214.732L480.581 218.376L474.469 204.049L472.526 204.878L479.392 220.971ZM493.706 214.864L495.649 214.036L488.783 197.943L486.841 198.771L493.706 214.864ZM506.591 209.629C507.518 209.233 508.309 208.722 508.963 208.095C509.611 207.453 510.095 206.751 510.413 205.989C510.725 205.212 510.838 204.416 510.751 203.601L510.861 203.554L512.457 206.865L513.936 206.234L510.414 197.978L503.593 200.888L504.233 202.389L508.979 200.364L509.073 200.585C509.732 202.13 509.815 203.548 509.321 204.837C508.828 206.126 507.757 207.122 506.108 207.825C504.504 208.509 503.011 208.598 501.63 208.092C500.263 207.579 499.206 206.447 498.459 204.696L497.489 202.422C497.043 201.377 496.854 200.362 496.92 199.377C496.981 198.377 497.326 197.473 497.955 196.665C498.579 195.843 499.494 195.174 500.701 194.659C501.966 194.119 503.177 193.96 504.332 194.18C505.481 194.386 506.401 194.993 507.092 196.003L509.101 195.146C508.538 194.151 507.784 193.403 506.839 192.902C505.888 192.385 504.821 192.127 503.639 192.127C502.471 192.121 501.254 192.388 499.988 192.928C498.443 193.587 497.228 194.471 496.344 195.578C495.474 196.68 494.984 197.976 494.872 199.468C494.775 200.953 495.116 202.608 495.894 204.433L495.941 204.543C497.021 207.075 498.468 208.815 500.281 209.763C502.089 210.697 504.192 210.652 506.591 209.629ZM518.562 204.261L529.688 199.514L528.954 197.792L519.77 201.71L517.331 195.993L525.433 192.536L524.745 190.925L516.644 194.381L514.374 189.061L523.557 185.143L522.823 183.421L511.697 188.168L518.562 204.261ZM533.588 197.851L535.486 197.041L529.817 183.751L529.928 183.704L530.481 184.146L544.206 193.321L546.634 192.285L539.769 176.192L537.871 177.002L543.54 190.291L543.43 190.338L542.772 189.836L529.217 180.694L526.723 181.758L533.588 197.851ZM557.951 187.718C559.202 187.185 560.226 186.487 561.024 185.625C561.83 184.741 562.369 183.763 562.642 182.69C562.923 181.596 562.89 180.479 562.544 179.34L560.535 180.197C560.748 181.063 560.738 181.876 560.505 182.636C560.267 183.382 559.861 184.042 559.289 184.616C558.716 185.191 558.026 185.651 557.216 185.996C556.039 186.499 554.941 186.698 553.922 186.593C552.903 186.488 552.008 186.122 551.236 185.495C550.478 184.861 549.871 184.007 549.412 182.933L548.452 180.681C548 179.622 547.807 178.599 547.874 177.614C547.941 176.629 548.281 175.735 548.896 174.934C549.519 174.111 550.434 173.443 551.641 172.928C552.436 172.589 553.231 172.415 554.028 172.406C554.832 172.375 555.586 172.532 556.289 172.876C557.007 173.213 557.616 173.762 558.115 174.524L560.123 173.667C559.526 172.634 558.746 171.845 557.783 171.299C556.819 170.754 555.75 170.47 554.576 170.45C553.395 170.414 552.172 170.666 550.907 171.206C549.361 171.865 548.157 172.753 547.294 173.869C546.424 174.971 545.941 176.264 545.844 177.749C545.741 179.22 546.072 180.853 546.838 182.648L546.876 182.736C548.025 185.43 549.567 187.19 551.503 188.016C553.447 188.822 555.596 188.723 557.951 187.718ZM568.404 182.998L579.53 178.252L578.795 176.53L569.612 180.447L567.173 174.73L575.274 171.274L574.587 169.662L566.485 173.119L564.216 167.798L573.399 163.881L572.665 162.159L561.539 166.905L568.404 182.998Z" fill="#121212"/>
<rect x="369.688" y="525.847" width="213" height="87" rx="43.5" transform="rotate(-31.4583 369.688 525.847)" fill="#121212"/>
<rect x="369.688" y="525.847" width="213" height="87" rx="43.5" transform="rotate(-31.4583 369.688 525.847)" stroke="#D0D0D0"/>
<path d="M437.344 545.11C438.477 544.417 439.371 543.654 440.025 542.823C440.684 541.969 441.05 541.08 441.121 540.154C441.198 539.207 440.936 538.242 440.335 537.259C439.867 536.495 439.336 535.948 438.74 535.618C438.158 535.28 437.532 535.101 436.863 535.079C436.193 535.057 435.493 535.139 434.762 535.323C434.044 535.5 433.32 535.727 432.59 536.005C431.775 536.297 431.017 536.545 430.316 536.749C429.629 536.944 429.008 536.987 428.453 536.876C427.897 536.766 427.428 536.397 427.044 535.769C426.576 535.004 426.502 534.224 426.822 533.429C427.147 532.611 427.814 531.893 428.824 531.275C429.998 530.557 431.03 530.282 431.92 530.45C432.811 530.618 433.556 531.146 434.157 532.036L436.04 530.883C435.195 529.563 434.073 528.786 432.674 528.554C431.267 528.308 429.697 528.716 427.963 529.776C426.899 530.427 426.071 531.159 425.48 531.971C424.888 532.783 424.555 533.633 424.481 534.523C424.42 535.404 424.652 536.275 425.178 537.135C425.729 538.036 426.386 538.619 427.149 538.884C427.916 539.127 428.75 539.17 429.648 539.014C430.561 538.85 431.508 538.59 432.49 538.233C433.332 537.923 434.126 537.672 434.871 537.479C435.607 537.273 436.279 537.237 436.887 537.371C437.5 537.484 438.019 537.888 438.445 538.585C438.962 539.431 439.076 540.29 438.784 541.162C438.484 542.021 437.713 542.83 436.471 543.59C435.284 544.317 434.179 544.627 433.157 544.52C432.149 544.406 431.259 543.778 430.486 542.638L428.623 543.777C429.199 544.719 429.925 545.429 430.799 545.907C431.664 546.372 432.65 546.557 433.755 546.462C434.865 546.346 436.062 545.895 437.344 545.11ZM446.447 539.259L448.249 538.157L439.118 523.233L437.317 524.335L446.447 539.259ZM452.925 535.296L454.686 534.219L447.146 521.895L447.248 521.832L447.86 522.189L462.772 529.272L465.024 527.894L455.893 512.97L454.133 514.047L461.673 526.371L461.571 526.434L460.847 526.033L446.108 518.957L443.794 520.372L452.925 535.296ZM475.557 521.732C476.717 521.022 477.629 520.182 478.293 519.214C478.962 518.223 479.354 517.177 479.468 516.075C479.587 514.952 479.392 513.852 478.884 512.775L477.021 513.915C477.357 514.741 477.465 515.546 477.346 516.332C477.218 517.104 476.913 517.816 476.43 518.468C475.947 519.12 475.331 519.675 474.58 520.135C473.488 520.803 472.431 521.159 471.407 521.203C470.384 521.248 469.445 521.016 468.59 520.507C467.749 519.991 467.023 519.234 466.414 518.238L465.136 516.149C464.535 515.167 464.196 514.183 464.119 513.199C464.042 512.214 464.249 511.281 464.741 510.399C465.238 509.494 466.046 508.7 467.165 508.015C467.902 507.564 468.664 507.276 469.45 507.151C470.242 507.005 471.011 507.05 471.756 507.288C472.516 507.517 473.198 507.972 473.802 508.653L475.665 507.514C474.924 506.579 474.037 505.911 473.005 505.511C471.972 505.111 470.874 504.986 469.709 505.136C468.535 505.273 467.362 505.7 466.188 506.418C464.755 507.295 463.693 508.348 463.001 509.578C462.3 510.794 462.01 512.144 462.13 513.628C462.242 515.097 462.807 516.665 463.825 518.33L463.875 518.412C465.404 520.909 467.185 522.427 469.22 522.963C471.261 523.478 473.373 523.068 475.557 521.732ZM485.213 515.542L495.531 509.23L494.554 507.633L486.038 512.843L482.794 507.541L490.307 502.944L489.393 501.45L481.879 506.047L478.861 501.113L487.377 495.902L486.4 494.305L476.082 500.618L485.213 515.542ZM499.148 507.017L500.95 505.915L497.418 500.142L501.144 497.862L508.565 501.256L510.715 499.94L503.025 496.43C504.202 495.503 504.88 494.45 505.059 493.272C505.23 492.079 504.948 490.883 504.214 489.682C503.328 488.235 502.221 487.375 500.89 487.101C499.551 486.813 498.063 487.17 496.425 488.172L490.017 492.093L499.148 507.017ZM497.075 489.97C498.125 489.327 499.085 489.04 499.953 489.109C500.82 489.178 501.505 489.623 502.006 490.442L502.632 491.465C503.141 492.298 503.229 493.116 502.896 493.92C502.554 494.711 501.858 495.427 500.807 496.07L496.528 498.688L492.796 492.587L497.075 489.97ZM514.342 497.721L516.144 496.619L507.013 481.694L505.212 482.797L514.342 497.721ZM522.043 474.694L521.066 473.097L509.601 480.111L510.578 481.708L515.41 478.752L523.563 492.08L525.385 490.965L517.232 477.637L522.043 474.694ZM536.563 484.127L538.385 483.012L534.565 476.768L534.495 464.881L532.428 466.146L532.56 474.365L532.603 475.492L532.501 475.555L531.516 475.004L524.259 471.143L522.191 472.409L532.743 477.882L536.563 484.127Z" fill="white"/>
<rect x="769.183" y="570.683" width="213" height="87" rx="43.5" transform="rotate(30 769.183 570.683)" fill="#121212"/>
<rect x="769.183" y="570.683" width="213" height="87" rx="43.5" transform="rotate(30 769.183 570.683)" stroke="#D0D0D0"/>
<path d="M784.588 639.321C785.738 639.985 786.834 640.406 787.878 640.583C788.942 640.755 789.899 640.651 790.746 640.271C791.615 639.886 792.337 639.195 792.913 638.197C793.361 637.421 793.588 636.693 793.593 636.012C793.611 635.34 793.47 634.704 793.169 634.105C792.868 633.507 792.462 632.93 791.951 632.376C791.453 631.83 790.908 631.303 790.315 630.794C789.668 630.218 789.088 629.67 788.574 629.152C788.075 628.642 787.741 628.116 787.572 627.576C787.404 627.035 787.504 626.446 787.872 625.809C788.32 625.033 788.97 624.595 789.822 624.496C790.695 624.391 791.645 624.634 792.67 625.226C793.862 625.914 794.597 626.689 794.875 627.552C795.153 628.414 795.044 629.322 794.55 630.274L796.462 631.378C797.218 630.004 797.364 628.648 796.9 627.308C796.444 625.954 795.336 624.77 793.576 623.754C792.495 623.13 791.457 622.752 790.461 622.62C789.465 622.489 788.559 622.603 787.742 622.963C786.938 623.33 786.285 623.95 785.781 624.823C785.253 625.738 785.054 626.593 785.186 627.39C785.339 628.18 785.699 628.933 786.265 629.648C786.845 630.371 787.527 631.078 788.31 631.771C788.984 632.363 789.584 632.94 790.109 633.502C790.642 634.05 790.995 634.623 791.167 635.222C791.361 635.814 791.254 636.463 790.846 637.17C790.35 638.029 789.649 638.539 788.743 638.7C787.846 638.847 786.766 638.556 785.505 637.828C784.3 637.132 783.5 636.31 783.105 635.361C782.724 634.421 782.85 633.339 783.483 632.115L781.591 631.023C781.039 631.979 780.762 632.956 780.76 633.952C780.765 634.934 781.073 635.888 781.685 636.814C782.318 637.733 783.285 638.569 784.588 639.321ZM794.077 644.522L795.906 645.578L804.654 630.427L802.825 629.371L794.077 644.522ZM800.653 648.319L802.44 649.351L809.664 636.839L809.768 636.899L809.747 637.607L810.65 654.091L812.937 655.411L821.685 640.259L819.897 639.227L812.673 651.74L812.569 651.68L812.576 650.852L811.75 634.523L809.401 633.167L800.653 648.319ZM823.383 661.72C824.561 662.4 825.734 662.8 826.902 662.92C828.092 663.034 829.198 662.879 830.22 662.453C831.264 662.021 832.137 661.324 832.84 660.363L830.949 659.271C830.384 659.961 829.728 660.441 828.981 660.711C828.241 660.968 827.47 661.04 826.667 660.927C825.863 660.815 825.081 660.538 824.319 660.098C823.21 659.458 822.392 658.7 821.864 657.822C821.336 656.944 821.091 656.009 821.129 655.015C821.181 654.028 821.499 653.03 822.083 652.018L823.307 649.898C823.883 648.9 824.585 648.133 825.413 647.594C826.241 647.056 827.16 646.792 828.17 646.803C829.202 646.808 830.286 647.138 831.423 647.794C832.171 648.226 832.788 648.757 833.273 649.389C833.78 650.014 834.108 650.711 834.255 651.48C834.416 652.257 834.342 653.073 834.033 653.929L835.924 655.021C836.392 653.923 836.554 652.826 836.412 651.728C836.27 650.63 835.855 649.605 835.167 648.653C834.486 647.687 833.55 646.861 832.359 646.173C830.904 645.333 829.471 644.903 828.06 644.882C826.657 644.848 825.333 645.238 824.087 646.052C822.849 646.853 821.742 648.098 820.766 649.789L820.718 649.872C819.254 652.407 818.772 654.697 819.273 656.742C819.796 658.78 821.166 660.44 823.383 661.72ZM833.433 667.245L843.909 673.293L844.845 671.672L836.198 666.68L839.306 661.297L846.934 665.701L847.81 664.183L840.182 659.779L843.074 654.77L851.721 659.762L852.657 658.141L842.181 652.093L833.433 667.245ZM847.581 675.413L849.41 676.469L852.794 670.608L856.577 672.792L857.142 680.933L859.324 682.193L858.733 673.76C860.11 674.352 861.359 674.444 862.48 674.039C863.609 673.619 864.526 672.799 865.23 671.58C866.078 670.111 866.304 668.727 865.909 667.427C865.522 666.114 864.497 664.977 862.834 664.017L856.329 660.261L847.581 675.413ZM861.566 665.446C862.633 666.062 863.343 666.768 863.697 667.563C864.05 668.359 863.987 669.172 863.507 670.004L862.907 671.043C862.419 671.888 861.742 672.356 860.877 672.448C860.019 672.525 859.057 672.256 857.99 671.64L853.646 669.132L857.222 662.938L861.566 665.446ZM863.007 684.319L864.836 685.375L873.584 670.223L871.755 669.167L863.007 684.319ZM886.915 680.081L887.851 678.46L876.211 671.74L875.275 673.361L880.18 676.193L872.368 689.724L874.218 690.792L882.03 677.261L886.915 680.081ZM885.566 697.344L887.416 698.412L891.076 692.073L901.485 686.332L899.386 685.12L892.229 689.164L891.259 689.74L891.155 689.68L891.169 688.552L891.093 680.332L888.993 679.12L889.226 691.005L885.566 697.344Z" fill="white"/>
<rect x="189.307" y="511.644" width="346" height="87" rx="43.5" transform="rotate(20.6367 189.307 511.644)" fill="white"/>
<rect x="189.307" y="511.644" width="346" height="87" rx="43.5" transform="rotate(20.6367 189.307 511.644)" stroke="#D0D0D0"/>
<path d="M208.256 573.812L210.21 574.548L213.272 570.982L220.975 573.883L220.901 578.574L222.9 579.327L223.137 560.72L220.375 559.68L208.256 573.812ZM214.349 569.618L218.516 564.75L221.029 561.824L221.164 561.875L221.116 565.678L221.042 572.139L214.349 569.618ZM225.575 580.334L227.507 581.062L232.483 567.779L232.813 566.903L232.948 566.954L232.91 567.94L232.762 583.041L234.784 583.802L244.665 572.341L245.256 571.589L245.391 571.64L240.062 585.79L241.993 586.517L248.16 570.144L245.038 568.968L234.74 580.99L234.628 580.948L234.796 565.111L231.741 563.961L225.575 580.334ZM247.114 588.446L249.09 589.19L255.257 572.817L253.28 572.072L247.114 588.446ZM251.795 590.209L253.749 590.944L256.81 587.379L264.514 590.28L264.44 594.971L266.439 595.724L266.675 577.117L263.913 576.077L251.795 590.209ZM257.888 586.015L262.055 581.147L264.567 578.221L264.702 578.272L264.654 582.075L264.581 588.536L257.888 586.015ZM268.806 596.615L276.151 599.381C277.768 599.99 279.194 600.108 280.428 599.736C281.668 599.348 282.573 598.398 283.143 596.885C283.555 595.792 283.592 594.806 283.257 593.928C282.941 593.04 282.325 592.337 281.408 591.821L281.468 591.664C282.486 591.774 283.352 591.587 284.064 591.103C284.791 590.625 285.332 589.914 285.688 588.97C286.184 587.653 286.16 586.49 285.617 585.482C285.094 584.464 284.069 583.668 282.541 583.092L274.972 580.242L268.806 596.615ZM281.472 584.434C282.401 584.783 283.073 585.267 283.49 585.886C283.912 586.49 283.971 587.196 283.667 588.004L283.345 588.858C283.069 589.591 282.574 590.089 281.86 590.35C281.152 590.596 280.311 590.536 279.338 590.169L274.172 588.224L276.329 582.497L281.472 584.434ZM278.883 591.717C279.901 592.1 280.625 592.629 281.055 593.304C281.491 593.964 281.553 594.705 281.243 595.529L280.947 596.315C280.62 597.183 280.067 597.744 279.287 597.998C278.508 598.252 277.602 598.184 276.569 597.795L271.313 595.815L273.605 589.729L278.883 591.717ZM285.147 602.769L295.815 606.787L296.492 604.99L287.8 601.717L293.289 587.14L291.313 586.396L285.147 602.769ZM299.711 608.254L311.03 612.517L311.69 610.765L302.347 607.247L304.538 601.429L312.78 604.534L313.398 602.894L305.155 599.79L307.194 594.377L316.537 597.896L317.197 596.144L305.877 591.881L299.711 608.254ZM320.92 616.242L322.852 616.969L327.944 603.448L328.056 603.491L328.151 604.193L331.724 620.31L334.194 621.241L340.361 604.868L338.429 604.14L333.337 617.661L333.225 617.619L333.097 616.801L329.625 600.824L327.087 599.869L320.92 616.242ZM339.301 623.164L350.621 627.427L351.28 625.675L341.937 622.157L344.128 616.339L352.371 619.444L352.988 617.804L344.745 614.7L346.784 609.287L356.127 612.806L356.787 611.054L345.467 606.791L339.301 623.164ZM354.588 628.922L356.565 629.666L358.95 623.332L363.038 624.872L364.92 632.812L367.278 633.701L365.324 625.476C366.778 625.836 368.026 625.724 369.066 625.141C370.111 624.544 370.883 623.586 371.379 622.268C371.976 620.681 371.975 619.278 371.373 618.06C370.778 616.827 369.582 615.872 367.785 615.196L360.755 612.548L354.588 628.922ZM366.766 616.812C367.919 617.246 368.734 617.827 369.213 618.554C369.691 619.282 369.761 620.095 369.423 620.993L369 622.116C368.656 623.029 368.064 623.602 367.225 623.833C366.391 624.049 365.398 623.94 364.245 623.505L359.551 621.737L362.071 615.044L366.766 616.812ZM371.258 635.199L377.367 637.5C378.894 638.075 380.334 638.293 381.686 638.152C383.039 638.012 384.252 637.469 385.326 636.523C386.406 635.562 387.302 634.138 388.012 632.251L388.08 632.071C389.101 629.361 389.188 627.086 388.342 625.246C387.502 623.391 385.899 622.018 383.533 621.127L377.424 618.826L371.258 635.199ZM373.894 634.192L378.741 621.322L382.851 622.87C384.693 623.564 385.88 624.566 386.412 625.878C386.964 627.18 386.939 628.633 386.335 630.235L385.481 632.503C384.832 634.225 383.85 635.359 382.532 635.906C381.236 636.444 379.726 636.388 378.004 635.74L373.894 634.192ZM388.717 641.775L390.694 642.519L396.86 626.146L394.883 625.401L388.717 641.775ZM395.824 644.451L397.755 645.178L402.847 631.658L402.96 631.7L403.054 632.402L406.627 648.52L409.097 649.45L415.264 633.077L413.332 632.349L408.24 645.87L408.128 645.828L408 645.01L404.528 629.033L401.99 628.078L395.824 644.451ZM414.204 651.373L425.524 655.636L426.184 653.884L416.84 650.366L419.031 644.549L427.274 647.653L427.891 646.013L419.649 642.909L421.687 637.496L431.03 641.015L431.69 639.263L420.37 635L414.204 651.373ZM434.483 659.267C435.726 659.735 436.876 659.972 437.934 659.977C439.013 659.973 439.939 659.715 440.714 659.203C441.508 658.681 442.109 657.882 442.515 656.803C442.83 655.965 442.935 655.209 442.83 654.537C442.739 653.87 442.496 653.266 442.102 652.724C441.707 652.182 441.213 651.68 440.618 651.217C440.038 650.759 439.414 650.327 438.746 649.922C438.015 649.458 437.353 649.012 436.762 648.585C436.186 648.163 435.771 647.698 435.517 647.192C435.263 646.687 435.266 646.089 435.525 645.4C435.841 644.562 436.411 644.024 437.235 643.788C438.08 643.542 439.057 643.627 440.165 644.045C441.452 644.529 442.304 645.175 442.718 645.981C443.133 646.787 443.174 647.7 442.841 648.72L444.907 649.498C445.43 648.019 445.353 646.657 444.677 645.41C444.006 644.149 442.72 643.16 440.819 642.444C439.651 642.004 438.565 641.801 437.561 641.833C436.557 641.865 435.681 642.125 434.934 642.613C434.201 643.106 433.657 643.825 433.301 644.768C432.929 645.756 432.873 646.633 433.132 647.397C433.412 648.152 433.889 648.836 434.564 649.45C435.254 650.069 436.042 650.656 436.927 651.211C437.689 651.686 438.374 652.158 438.984 652.627C439.599 653.081 440.041 653.589 440.308 654.151C440.595 654.704 440.595 655.363 440.308 656.126C439.958 657.055 439.35 657.672 438.482 657.978C437.62 658.268 436.508 658.157 435.145 657.644C433.843 657.154 432.92 656.473 432.376 655.601C431.847 654.735 431.795 653.647 432.22 652.337L430.177 651.567C429.787 652.6 429.673 653.608 429.832 654.592C429.998 655.56 430.457 656.451 431.211 657.265C431.985 658.07 433.076 658.737 434.483 659.267ZM449.683 664.991C450.926 665.459 452.076 665.696 453.134 665.701C454.213 665.697 455.139 665.439 455.914 664.927C456.708 664.406 457.309 663.606 457.715 662.528C458.03 661.689 458.135 660.934 458.03 660.261C457.939 659.595 457.696 658.99 457.302 658.449C456.907 657.907 456.413 657.404 455.818 656.941C455.238 656.483 454.614 656.052 453.946 655.646C453.215 655.183 452.553 654.737 451.962 654.309C451.386 653.887 450.971 653.423 450.717 652.917C450.463 652.411 450.466 651.814 450.725 651.125C451.041 650.286 451.611 649.749 452.435 649.512C453.28 649.266 454.257 649.352 455.365 649.769C456.652 650.254 457.503 650.899 457.918 651.705C458.333 652.511 458.374 653.424 458.041 654.444L460.107 655.222C460.63 653.744 460.553 652.381 459.877 651.135C459.206 649.874 457.92 648.885 456.019 648.169C454.851 647.729 453.765 647.525 452.761 647.557C451.757 647.59 450.881 647.85 450.133 648.337C449.401 648.831 448.857 649.549 448.501 650.492C448.129 651.481 448.073 652.357 448.332 653.121C448.612 653.876 449.089 654.561 449.764 655.174C450.454 655.793 451.242 656.38 452.127 656.936C452.889 657.411 453.574 657.883 454.184 658.352C454.799 658.806 455.241 659.314 455.508 659.876C455.795 660.429 455.795 661.087 455.508 661.851C455.158 662.779 454.55 663.396 453.682 663.702C452.82 663.993 451.708 663.882 450.345 663.369C449.043 662.878 448.12 662.197 447.576 661.325C447.047 660.46 446.995 659.371 447.42 658.061L445.377 657.291C444.987 658.325 444.873 659.333 445.032 660.316C445.198 661.285 445.657 662.176 446.411 662.99C447.185 663.794 448.276 664.461 449.683 664.991Z" fill="#121212"/>
<rect x="659.737" y="395.611" width="308" height="87" rx="43.5" transform="rotate(75.2308 659.737 395.611)" stroke="#D0D0D0"/>
<path d="M620.705 449.58L621.244 451.622L628.902 449.603L631.472 459.35L623.813 461.369L624.358 463.435L641.276 458.975L640.731 456.909L633.282 458.873L630.712 449.126L638.162 447.162L637.623 445.12L620.705 449.58ZM627.29 475.499C627.661 476.907 628.245 478.052 629.04 478.934C629.855 479.828 630.823 480.425 631.944 480.725C633.085 481.036 634.337 481.012 635.698 480.654L646.257 477.87L645.719 475.828L635.276 478.581C633.76 478.98 632.452 478.854 631.353 478.2C630.274 477.558 629.54 476.502 629.153 475.032C628.761 473.547 628.883 472.249 629.516 471.139C630.17 470.04 631.239 469.295 632.724 468.903L643.168 466.15L642.629 464.108L632.07 466.892C630.755 467.238 629.672 467.805 628.82 468.592C627.969 469.379 627.399 470.357 627.111 471.525C626.843 472.704 626.903 474.029 627.29 475.499ZM630.689 487.45L631.216 489.446L644.925 485.807L645.83 485.568L645.867 485.708L645.041 486.248L632.647 494.877L633.198 496.965L648.264 498.379L649.219 498.425L649.256 498.564L634.636 502.419L635.162 504.415L652.08 499.955L651.229 496.729L635.464 495.3L635.434 495.184L648.439 486.146L647.607 482.99L630.689 487.45ZM638.044 516.288C638.701 518.779 639.942 520.536 641.767 521.561C643.612 522.597 645.95 522.742 648.782 521.995L648.874 521.971C650.762 521.473 652.254 520.732 653.352 519.748C654.464 518.76 655.189 517.584 655.524 516.221C655.876 514.855 655.835 513.351 655.403 511.711C654.974 510.087 654.271 508.767 653.291 507.751C652.327 506.731 651.118 506.065 649.662 505.754C648.222 505.439 646.559 505.53 644.671 506.027L644.578 506.052C641.747 506.798 639.782 508.069 638.683 509.865C637.604 511.671 637.391 513.812 638.044 516.288ZM639.854 515.811C639.528 514.573 639.49 513.458 639.741 512.465C639.993 511.472 640.484 510.639 641.217 509.966C641.954 509.309 642.887 508.831 644.016 508.533L646.383 507.909C647.497 507.615 648.537 507.573 649.502 507.782C650.467 507.991 651.302 508.457 652.006 509.182C652.729 509.918 653.258 510.92 653.593 512.189C653.931 513.473 653.965 514.606 653.694 515.587C653.439 516.564 652.943 517.382 652.206 518.039C651.47 518.697 650.544 519.173 649.43 519.466L647.063 520.09C645.934 520.388 644.884 520.425 643.915 520.2C642.95 519.992 642.113 519.517 641.405 518.777C640.702 518.053 640.184 517.064 639.854 515.811ZM642.932 534.831C643.304 536.239 643.887 537.384 644.682 538.266C645.497 539.16 646.465 539.757 647.586 540.057C648.728 540.368 649.979 540.345 651.34 539.986L661.9 537.202L661.361 535.16L650.918 537.913C649.402 538.313 648.094 538.186 646.995 537.532C645.916 536.89 645.183 535.834 644.795 534.364C644.404 532.879 644.525 531.581 645.159 530.471C645.812 529.372 646.881 528.627 648.367 528.235L658.81 525.482L658.271 523.44L647.712 526.224C646.397 526.571 645.314 527.137 644.462 527.924C643.611 528.712 643.041 529.689 642.753 530.857C642.485 532.036 642.545 533.361 642.932 534.831ZM646.332 546.782L646.87 548.825L653.414 547.099L654.528 551.323L649.146 557.458L649.788 559.894L655.359 553.536C655.909 554.93 656.723 555.882 657.8 556.392C658.893 556.898 660.121 556.972 661.482 556.613C663.122 556.181 664.264 555.366 664.909 554.171C665.569 552.971 665.654 551.443 665.164 549.586L663.249 542.322L646.332 546.782ZM663.256 549.692C663.57 550.883 663.57 551.885 663.254 552.696C662.938 553.507 662.317 554.035 661.388 554.28L660.228 554.586C659.284 554.834 658.475 554.684 657.8 554.134C657.141 553.579 656.655 552.706 656.341 551.515L655.062 546.665L661.978 544.842L663.256 549.692ZM653.306 574.178C653.587 575.245 654.051 576.19 654.698 577.012C655.349 577.85 656.157 578.465 657.12 578.856L655.459 581.404L656.077 583.747L658.692 579.732C659.299 579.903 659.993 579.993 660.773 580.002C661.569 580.008 662.31 579.961 662.995 579.863L663.607 582.184L665.046 581.805L664.055 578.045C663.37 578.209 662.605 578.32 661.76 578.377C660.934 578.446 660.216 578.42 659.605 578.3L662.968 573.169L663.084 573.139C663.752 574.104 664.54 574.832 665.446 575.321C666.357 575.825 667.331 575.941 668.367 575.667C669.094 575.476 669.684 575.138 670.135 574.655C670.603 574.168 670.912 573.582 671.062 572.897C671.216 572.227 671.194 571.514 670.994 570.756C670.769 569.905 670.409 569.197 669.913 568.633C669.421 568.084 668.834 567.709 668.152 567.509C667.486 567.304 666.781 567.299 666.039 567.495C665.296 567.691 664.662 568.048 664.137 568.567C663.612 569.086 663.089 569.737 662.567 570.52C661.691 569.394 660.717 568.617 659.644 568.188C658.587 567.755 657.54 567.675 656.503 567.949C655.513 568.21 654.737 568.654 654.175 569.282C653.632 569.922 653.29 570.666 653.149 571.514C653.013 572.377 653.065 573.265 653.306 574.178ZM663.766 571.867C664.166 571.248 664.555 570.716 664.933 570.268C665.331 569.832 665.832 569.535 666.435 569.376C667.085 569.205 667.687 569.261 668.242 569.545C668.801 569.844 669.18 570.373 669.38 571.131C669.56 571.812 669.496 572.416 669.188 572.944C668.88 573.472 668.402 573.822 667.752 573.993C667.009 574.189 666.298 574.095 665.618 573.712C664.957 573.34 664.35 572.763 663.797 571.983L663.766 571.867ZM655.01 574.051C654.757 573.092 654.798 572.212 655.133 571.412C655.488 570.624 656.176 570.095 657.197 569.826C658.017 569.61 658.819 569.671 659.603 570.011C660.407 570.361 661.135 570.955 661.786 571.793L658.04 577.447C657.334 577.219 656.708 576.822 656.161 576.254C655.63 575.683 655.246 574.948 655.01 574.051ZM658.574 593.219L659.112 595.261L676.03 590.801L675.492 588.759L658.574 593.219ZM660.51 600.562L661.048 602.604L667.593 600.879L668.706 605.103L663.324 611.237L663.967 613.674L669.538 607.316C670.087 608.71 670.901 609.662 671.979 610.172C673.072 610.678 674.299 610.751 675.66 610.393C677.3 609.96 678.443 609.146 679.087 607.95C679.747 606.75 679.832 605.222 679.343 603.366L677.428 596.102L660.51 600.562ZM677.435 603.472C677.749 604.663 677.748 605.664 677.432 606.475C677.117 607.287 676.495 607.815 675.567 608.059L674.406 608.365C673.462 608.614 672.653 608.463 671.979 607.913C671.32 607.359 670.833 606.486 670.519 605.295L669.24 600.445L676.156 598.621L677.435 603.472ZM666.52 624.3C667.177 626.791 668.418 628.549 670.243 629.573C672.088 630.609 674.426 630.754 677.258 630.008L677.35 629.983C679.238 629.486 680.73 628.745 681.828 627.76C682.941 626.772 683.665 625.597 684.001 624.234C684.352 622.867 684.311 621.364 683.879 619.724C683.451 618.099 682.747 616.779 681.767 615.763C680.804 614.743 679.594 614.078 678.138 613.767C676.698 613.451 675.035 613.542 673.147 614.04L673.054 614.064C670.223 614.811 668.258 616.082 667.16 617.877C666.081 619.684 665.867 621.825 666.52 624.3ZM668.33 623.823C668.004 622.585 667.966 621.47 668.217 620.477C668.469 619.485 668.961 618.652 669.693 617.979C670.43 617.321 671.363 616.843 672.492 616.546L674.859 615.922C675.973 615.628 677.013 615.586 677.978 615.794C678.943 616.003 679.778 616.47 680.482 617.194C681.205 617.93 681.734 618.933 682.069 620.201C682.407 621.485 682.441 622.618 682.17 623.6C681.915 624.577 681.419 625.394 680.682 626.052C679.946 626.709 679.02 627.185 677.906 627.479L675.539 628.103C674.41 628.401 673.361 628.437 672.391 628.213C671.426 628.004 670.59 627.53 669.882 626.79C669.178 626.065 668.66 625.076 668.33 623.823ZM669.872 636.075L670.399 638.071L684.369 634.388L684.4 634.504L683.882 634.988L672.815 647.238L673.488 649.791L690.406 645.33L689.88 643.335L675.909 647.018L675.879 646.902L676.471 646.324L687.482 634.237L686.79 631.615L669.872 636.075ZM676.011 659.36L676.556 661.426L683.634 659.56L695.04 662.906L694.422 660.563L686.511 658.329L685.419 658.046L685.389 657.93L686.199 657.146L691.981 651.303L691.363 648.959L683.089 657.494L676.011 659.36Z" fill="#121212"/>
<rect x="0.671102" y="510.761" width="308" height="87" rx="43.5" transform="rotate(-26.6375 0.671102 510.761)" stroke="#D0D0D0"/>
<path d="M61.5139 537.859L63.4017 536.912L59.8509 529.833L68.861 525.313L72.4119 532.393L74.3211 531.435L66.4769 515.796L64.5676 516.754L68.0217 523.64L59.0116 528.159L55.5575 521.273L53.6697 522.22L61.5139 537.859ZM85.524 526.084C86.8254 525.432 87.8262 524.625 88.5262 523.666C89.2333 522.684 89.6184 521.614 89.6813 520.455C89.7514 519.274 89.4708 518.055 88.8395 516.796L83.9436 507.035L82.0557 507.982L86.8979 517.636C87.6009 519.037 87.7456 520.343 87.3321 521.553C86.9258 522.741 86.0433 523.676 84.6846 524.357C83.3116 525.046 82.0167 525.194 80.7998 524.802C79.59 524.389 78.6408 523.496 77.9521 522.123L73.11 512.469L71.2221 513.416L76.1181 523.177C76.7278 524.392 77.5054 525.336 78.4507 526.007C79.3961 526.679 80.4699 527.035 81.672 527.077C82.8813 527.097 84.1653 526.766 85.524 526.084ZM96.5211 520.3L98.3661 519.374L91.9853 506.707L91.5657 505.87L91.6944 505.805L92.3929 506.502L103.386 516.857L105.317 515.888L103.602 500.853L103.45 499.909L103.579 499.844L110.358 513.359L112.203 512.434L104.359 496.795L101.377 498.291L103.221 514.012L103.114 514.066L91.5945 503.197L88.6769 504.661L96.5211 520.3ZM123.23 507.172C125.532 506.017 126.997 504.441 127.624 502.444C128.259 500.425 127.919 498.107 126.607 495.49L126.564 495.404C125.688 493.659 124.656 492.351 123.467 491.48C122.271 490.594 120.972 490.127 119.57 490.079C118.16 490.016 116.697 490.365 115.181 491.125C113.679 491.878 112.532 492.839 111.739 494.006C110.939 495.159 110.537 496.48 110.532 497.968C110.519 499.442 110.95 501.052 111.826 502.796L111.869 502.882C113.181 505.499 114.829 507.161 116.812 507.867C118.802 508.551 120.941 508.32 123.23 507.172ZM122.39 505.499C121.246 506.072 120.163 506.339 119.139 506.297C118.116 506.255 117.2 505.945 116.39 505.367C115.595 504.781 114.936 503.966 114.412 502.922L113.315 500.734C112.798 499.704 112.543 498.695 112.549 497.708C112.555 496.721 112.84 495.808 113.404 494.97C113.976 494.111 114.848 493.387 116.02 492.799C117.207 492.203 118.309 491.937 119.325 492C120.334 492.049 121.236 492.366 122.031 492.952C122.826 493.538 123.482 494.345 123.998 495.375L125.096 497.563C125.62 498.607 125.871 499.627 125.851 500.621C125.845 501.609 125.553 502.525 124.974 503.37C124.41 504.208 123.549 504.917 122.39 505.499ZM140.371 498.574C141.672 497.921 142.673 497.115 143.373 496.155C144.08 495.174 144.465 494.104 144.528 492.945C144.598 491.764 144.318 490.544 143.686 489.286L138.79 479.525L136.903 480.472L141.745 490.126C142.448 491.527 142.592 492.833 142.179 494.043C141.773 495.231 140.89 496.166 139.531 496.847C138.158 497.536 136.863 497.684 135.647 497.292C134.437 496.879 133.488 495.986 132.799 494.613L127.957 484.959L126.069 485.906L130.965 495.667C131.575 496.882 132.352 497.826 133.297 498.497C134.243 499.169 135.317 499.525 136.519 499.567C137.728 499.586 139.012 499.256 140.371 498.574ZM151.368 492.79L153.256 491.843L150.221 485.793L154.126 483.835L161.236 487.84L163.489 486.71L156.12 482.566C157.372 481.741 158.136 480.749 158.414 479.59C158.684 478.416 158.504 477.2 157.872 475.941C157.112 474.425 156.08 473.475 154.778 473.09C153.468 472.691 151.955 472.922 150.238 473.783L143.524 477.151L151.368 492.79ZM150.734 475.628C151.836 475.076 152.816 474.871 153.675 475.013C154.533 475.155 155.178 475.655 155.608 476.513L156.146 477.586C156.584 478.458 156.603 479.281 156.203 480.054C155.796 480.813 155.042 481.469 153.941 482.021L149.457 484.27L146.251 477.877L150.734 475.628ZM176.743 480.33C177.73 479.835 178.559 479.187 179.231 478.385C179.917 477.575 180.352 476.659 180.537 475.635L183.372 476.737L185.538 475.65L181.071 473.917C181.113 473.288 181.059 472.59 180.908 471.825C180.749 471.045 180.552 470.33 180.315 469.679L182.46 468.603L181.793 467.273L178.317 469.016C178.619 469.652 178.884 470.378 179.114 471.194C179.352 471.988 179.474 472.696 179.482 473.318L173.769 471.082L173.715 470.975C174.523 470.122 175.073 469.202 175.365 468.215C175.671 467.22 175.584 466.243 175.104 465.285C174.766 464.613 174.315 464.105 173.749 463.762C173.176 463.405 172.539 463.224 171.838 463.217C171.151 463.204 170.457 463.373 169.756 463.724C168.97 464.119 168.352 464.617 167.901 465.219C167.466 465.813 167.22 466.465 167.163 467.173C167.1 467.867 167.24 468.557 167.585 469.244C167.929 469.93 168.409 470.477 169.025 470.884C169.641 471.291 170.385 471.67 171.259 472.019C170.337 473.108 169.777 474.221 169.578 475.359C169.372 476.483 169.509 477.524 169.99 478.482C170.449 479.397 171.044 480.066 171.774 480.487C172.511 480.887 173.31 481.068 174.168 481.031C175.041 480.987 175.899 480.754 176.743 480.33ZM172.33 470.569C171.643 470.305 171.042 470.034 170.526 469.755C170.018 469.456 169.624 469.027 169.344 468.469C169.043 467.868 168.974 467.267 169.138 466.666C169.316 466.058 169.755 465.578 170.456 465.226C171.085 464.911 171.69 464.849 172.27 465.041C172.849 465.234 173.29 465.63 173.591 466.231C173.936 466.918 173.99 467.633 173.755 468.378C173.527 469.101 173.088 469.813 172.438 470.515L172.33 470.569ZM176.269 478.689C175.382 479.134 174.513 479.274 173.661 479.111C172.817 478.926 172.158 478.361 171.684 477.417C171.304 476.659 171.199 475.862 171.37 475.024C171.548 474.165 171.98 473.331 172.665 472.522L178.969 475.025C178.891 475.763 178.631 476.457 178.188 477.109C177.738 477.746 177.098 478.273 176.269 478.689ZM194.294 471.259L196.182 470.312L188.338 454.673L186.45 455.62L194.294 471.259ZM201.082 467.854L202.97 466.907L199.935 460.858L203.84 458.899L210.95 462.904L213.203 461.775L205.835 457.63C207.086 456.806 207.85 455.814 208.128 454.654C208.398 453.48 208.218 452.264 207.586 451.006C206.826 449.49 205.794 448.539 204.492 448.155C203.182 447.755 201.669 447.986 199.952 448.847L193.238 452.215L201.082 467.854ZM200.448 450.693C201.55 450.14 202.53 449.935 203.389 450.077C204.247 450.219 204.892 450.719 205.322 451.577L205.86 452.65C206.298 453.522 206.317 454.345 205.917 455.119C205.51 455.878 204.756 456.533 203.655 457.086L199.171 459.334L195.965 452.942L200.448 450.693ZM223.077 457.09C225.379 455.935 226.844 454.359 227.471 452.362C228.106 450.344 227.766 448.026 226.454 445.409L226.411 445.323C225.535 443.578 224.503 442.27 223.315 441.398C222.118 440.513 220.819 440.045 219.417 439.997C218.007 439.935 216.544 440.283 215.028 441.044C213.526 441.797 212.379 442.757 211.586 443.925C210.786 445.078 210.384 446.398 210.379 447.887C210.366 449.361 210.798 450.97 211.673 452.715L211.716 452.801C213.028 455.418 214.676 457.08 216.659 457.785C218.649 458.47 220.789 458.238 223.077 457.09ZM222.237 455.417C221.093 455.991 220.01 456.257 218.986 456.215C217.963 456.174 217.047 455.864 216.238 455.285C215.443 454.699 214.783 453.885 214.26 452.841L213.162 450.652C212.645 449.623 212.39 448.614 212.396 447.627C212.402 446.639 212.687 445.726 213.251 444.889C213.823 444.029 214.695 443.305 215.867 442.717C217.054 442.122 218.156 441.856 219.172 441.919C220.181 441.968 221.083 442.285 221.878 442.871C222.673 443.456 223.329 444.264 223.845 445.294L224.943 447.482C225.467 448.526 225.718 449.545 225.698 450.54C225.692 451.527 225.4 452.444 224.821 453.289C224.257 454.127 223.396 454.836 222.237 455.417ZM233.91 451.388L235.755 450.463L229.278 437.548L229.385 437.494L229.965 437.901L244.229 446.212L246.589 445.029L238.745 429.39L236.9 430.315L243.377 443.23L243.27 443.283L242.583 442.823L228.49 434.533L226.066 435.749L233.91 451.388ZM255.435 440.592L257.344 439.634L254.063 433.091L254.992 421.24L252.825 422.327L252.267 430.528L252.215 431.655L252.107 431.709L251.173 431.077L244.266 426.62L242.099 427.707L252.153 434.049L255.435 440.592Z" fill="#121212"/>
<rect x="502.503" y="239.662" width="376" height="87" rx="43.5" transform="rotate(24.3286 502.503 239.662)" fill="#121212"/>
<rect x="502.503" y="239.662" width="376" height="87" rx="43.5" transform="rotate(24.3286 502.503 239.662)" stroke="#D0D0D0"/>
<path d="M518.372 303.356L522.79 305.353C523.358 305.61 523.887 305.664 524.375 305.516C524.885 305.36 525.281 304.969 525.564 304.342L531.922 290.281L529.976 289.401L523.539 303.637L519.143 301.65L518.372 303.356ZM529.681 308.468L540.703 313.452L541.474 311.746L532.377 307.633L534.938 301.969L542.963 305.597L543.685 304.001L535.659 300.372L538.042 295.102L547.14 299.215L547.911 297.509L536.889 292.526L529.681 308.468ZM544.566 315.198L546.491 316.068L549.279 309.901L553.259 311.701L554.626 319.747L556.922 320.785L555.501 312.451C556.929 312.904 558.181 312.873 559.257 312.358C560.339 311.829 561.17 310.923 561.75 309.64C562.449 308.095 562.537 306.695 562.016 305.441C561.501 304.172 560.369 303.142 558.619 302.351L551.774 299.256L544.566 315.198ZM557.498 303.898C558.621 304.406 559.397 305.038 559.828 305.795C560.258 306.551 560.276 307.367 559.88 308.241L559.386 309.335C558.984 310.224 558.357 310.757 557.504 310.934C556.658 311.096 555.674 310.923 554.552 310.415L549.981 308.349L552.927 301.832L557.498 303.898ZM560.797 322.537L562.721 323.407L564.748 318.924L569.242 317.083L571.097 327.194L573.459 328.261L571.282 316.241L580.448 312.22L578.064 311.142L565.836 316.518L569.929 307.464L568.005 306.594L560.797 322.537ZM580.633 331.768C581.843 332.315 582.975 332.625 584.031 332.699C585.108 332.764 586.049 332.566 586.854 332.105C587.681 331.636 588.331 330.877 588.806 329.827C589.175 329.01 589.329 328.263 589.266 327.585C589.219 326.914 589.015 326.296 588.657 325.73C588.298 325.163 587.837 324.63 587.273 324.129C586.724 323.635 586.129 323.164 585.489 322.717C584.788 322.207 584.157 321.72 583.595 321.255C583.047 320.796 582.663 320.307 582.442 319.785C582.221 319.264 582.262 318.668 582.565 317.997C582.934 317.181 583.538 316.681 584.376 316.498C585.235 316.307 586.204 316.455 587.282 316.943C588.536 317.51 589.344 318.209 589.706 319.04C590.068 319.871 590.05 320.784 589.652 321.781L591.664 322.69C592.281 321.249 592.292 319.884 591.697 318.597C591.109 317.295 589.89 316.225 588.038 315.388C586.901 314.874 585.83 314.601 584.827 314.569C583.823 314.536 582.932 314.739 582.154 315.178C581.391 315.623 580.802 316.305 580.387 317.223C579.952 318.185 579.839 319.056 580.048 319.836C580.279 320.607 580.711 321.321 581.346 321.976C581.995 322.638 582.743 323.275 583.59 323.887C584.319 324.409 584.973 324.925 585.552 325.432C586.137 325.925 586.544 326.46 586.774 327.038C587.026 327.608 586.984 328.265 586.647 329.009C586.239 329.913 585.592 330.489 584.706 330.739C583.827 330.974 582.725 330.791 581.398 330.191C580.13 329.618 579.252 328.879 578.766 327.974C578.294 327.076 578.312 325.987 578.821 324.707L576.831 323.807C576.376 324.813 576.196 325.812 576.293 326.803C576.395 327.78 576.796 328.699 577.496 329.56C578.217 330.412 579.262 331.148 580.633 331.768ZM601.199 341.066C602.409 341.613 603.541 341.924 604.597 341.997C605.674 342.062 606.615 341.864 607.42 341.403C608.247 340.934 608.897 340.175 609.372 339.125C609.741 338.309 609.895 337.562 609.832 336.884C609.785 336.212 609.581 335.594 609.223 335.028C608.864 334.462 608.403 333.928 607.839 333.428C607.29 332.934 606.695 332.463 606.055 332.015C605.354 331.505 604.723 331.018 604.161 330.553C603.613 330.095 603.229 329.605 603.008 329.084C602.787 328.562 602.828 327.966 603.131 327.296C603.5 326.479 604.104 325.979 604.942 325.796C605.801 325.605 606.77 325.754 607.849 326.241C609.102 326.808 609.91 327.507 610.272 328.338C610.634 329.169 610.616 330.083 610.218 331.079L612.23 331.989C612.847 330.547 612.858 329.182 612.263 327.895C611.675 326.593 610.456 325.524 608.604 324.687C607.467 324.172 606.396 323.899 605.393 323.867C604.389 323.834 603.498 324.037 602.72 324.476C601.957 324.921 601.368 325.603 600.953 326.521C600.518 327.484 600.405 328.355 600.614 329.134C600.845 329.906 601.278 330.619 601.912 331.275C602.561 331.937 603.309 332.573 604.156 333.185C604.885 333.708 605.539 334.223 606.118 334.73C606.703 335.223 607.11 335.758 607.34 336.337C607.592 336.907 607.55 337.564 607.213 338.307C606.805 339.211 606.158 339.788 605.272 340.037C604.394 340.272 603.291 340.089 601.964 339.49C600.696 338.916 599.818 338.177 599.332 337.272C598.86 336.374 598.878 335.285 599.387 334.005L597.397 333.105C596.942 334.111 596.763 335.11 596.859 336.101C596.961 337.078 597.362 337.997 598.062 338.858C598.783 339.711 599.828 340.447 601.199 341.066ZM611.155 345.304L613.079 346.174L616.342 338.958L625.527 343.11L622.264 350.327L624.211 351.207L631.418 335.265L629.472 334.385L626.298 341.405L617.113 337.252L620.287 330.232L618.363 329.362L611.155 345.304ZM626.839 352.395L628.742 353.256L632.026 349.894L639.527 353.286L639.151 357.962L641.098 358.842L642.532 340.289L639.842 339.073L626.839 352.395ZM633.189 348.603L637.661 344.014L640.357 341.255L640.488 341.314L640.196 345.107L639.706 351.549L633.189 348.603ZM643.702 360.019L654.089 364.716L654.88 362.966L646.417 359.14L652.834 344.947L650.91 344.077L643.702 360.019ZM657.882 366.431L668.27 371.127L669.061 369.378L660.598 365.551L667.015 351.358L665.09 350.488L657.882 366.431ZM677.829 375.449L679.71 376.299L685.662 363.134L685.771 363.184L685.82 363.891L688.348 380.205L690.753 381.292L697.961 365.35L696.081 364.5L690.128 377.665L690.019 377.615L689.944 376.791L687.508 360.624L685.037 359.507L677.829 375.449ZM701.772 386.537C704.119 387.599 706.266 387.744 708.212 386.973C710.18 386.195 711.766 384.471 712.973 381.803L713.012 381.716C713.816 379.937 714.183 378.312 714.111 376.839C714.045 375.352 713.59 374.049 712.744 372.929C711.905 371.795 710.713 370.878 709.167 370.179C707.637 369.487 706.168 369.201 704.762 369.32C703.363 369.425 702.083 369.944 700.924 370.877C699.771 371.796 698.793 373.145 697.988 374.923L697.949 375.011C696.743 377.679 696.49 380.005 697.19 381.99C697.912 383.967 699.439 385.483 701.772 386.537ZM702.543 384.832C701.377 384.304 700.487 383.63 699.875 382.809C699.263 381.988 698.927 381.081 698.867 380.088C698.821 379.101 699.039 378.076 699.52 377.012L700.528 374.781C701.003 373.731 701.626 372.898 702.396 372.281C703.167 371.663 704.056 371.31 705.062 371.221C706.089 371.123 707.201 371.345 708.396 371.885C709.606 372.432 710.507 373.12 711.098 373.949C711.695 374.764 712.017 375.664 712.062 376.651C712.108 377.637 711.894 378.655 711.419 379.705L710.411 381.936C709.929 383 709.296 383.837 708.511 384.448C707.74 385.065 706.844 385.415 705.824 385.498C704.817 385.588 703.724 385.365 702.543 384.832ZM729.476 381.653L730.248 379.947L718.001 374.41L717.23 376.116L722.391 378.45L715.954 392.686L717.901 393.566L724.337 379.33L729.476 381.653ZM731.561 399.742L733.486 400.612L736.046 394.948L740.814 397.104C742.665 397.941 744.254 398.097 745.58 397.573C746.912 397.034 747.928 395.992 748.626 394.446C749.365 392.813 749.476 391.345 748.959 390.04C748.464 388.728 747.327 387.669 745.548 386.865L738.769 383.8L731.561 399.742ZM744.493 388.442C745.615 388.95 746.382 389.604 746.793 390.404C747.21 391.19 747.205 392.056 746.776 393.004L746.282 394.098C745.853 395.045 745.203 395.629 744.331 395.849C743.465 396.055 742.471 395.904 741.349 395.397L736.778 393.33L739.922 386.376L744.493 388.442ZM743.572 405.173L745.475 406.033L748.759 402.671L756.26 406.063L755.884 410.739L757.83 411.619L759.265 393.067L756.575 391.85L743.572 405.173ZM749.922 401.38L754.394 396.791L757.09 394.032L757.221 394.092L756.929 397.884L756.439 404.326L749.922 401.38ZM764.979 415.115C766.189 415.662 767.322 415.972 768.378 416.045C769.454 416.111 770.395 415.913 771.201 415.452C772.028 414.983 772.678 414.223 773.153 413.173C773.522 412.357 773.675 411.61 773.613 410.932C773.565 410.261 773.362 409.642 773.003 409.076C772.645 408.51 772.184 407.977 771.62 407.476C771.071 406.982 770.476 406.511 769.835 406.063C769.135 405.554 768.504 405.066 767.941 404.601C767.394 404.143 767.009 403.653 766.788 403.132C766.568 402.611 766.609 402.015 766.912 401.344C767.281 400.528 767.885 400.028 768.722 399.845C769.581 399.654 770.55 399.802 771.629 400.29C772.883 400.857 773.691 401.555 774.053 402.386C774.414 403.217 774.396 404.131 773.999 405.127L776.01 406.037C776.627 404.595 776.638 403.231 776.044 401.943C775.456 400.642 774.236 399.572 772.385 398.735C771.248 398.221 770.177 397.948 769.173 397.915C768.17 397.883 767.279 398.086 766.501 398.524C765.738 398.969 765.149 399.651 764.733 400.57C764.298 401.532 764.186 402.403 764.395 403.182C764.626 403.954 765.058 404.667 765.692 405.323C766.341 405.985 767.089 406.622 767.937 407.233C768.666 407.756 769.32 408.271 769.898 408.778C770.483 409.271 770.891 409.807 771.121 410.385C771.373 410.955 771.33 411.612 770.994 412.356C770.585 413.259 769.938 413.836 769.053 414.085C768.174 414.32 767.071 414.138 765.745 413.538C764.476 412.965 763.599 412.225 763.112 411.321C762.641 410.422 762.659 409.333 763.167 408.053L761.177 407.153C760.723 408.159 760.543 409.158 760.639 410.15C760.742 411.127 761.143 412.046 761.842 412.906C762.563 413.759 763.609 414.495 764.979 415.115ZM779.779 421.806C780.989 422.353 782.122 422.663 783.177 422.737C784.254 422.802 785.195 422.604 786.001 422.143C786.827 421.674 787.478 420.914 787.953 419.865C788.322 419.048 788.475 418.301 788.413 417.623C788.365 416.952 788.162 416.333 787.803 415.767C787.445 415.201 786.983 414.668 786.42 414.167C785.87 413.673 785.276 413.202 784.635 412.755C783.935 412.245 783.304 411.758 782.741 411.293C782.193 410.834 781.809 410.344 781.588 409.823C781.367 409.302 781.409 408.706 781.712 408.035C782.081 407.219 782.684 406.719 783.522 406.536C784.381 406.345 785.35 406.493 786.429 406.981C787.683 407.548 788.491 408.247 788.852 409.078C789.214 409.908 789.196 410.822 788.798 411.819L790.81 412.728C791.427 411.286 791.438 409.922 790.844 408.635C790.256 407.333 789.036 406.263 787.185 405.426C786.047 404.912 784.977 404.639 783.973 404.606C782.969 404.574 782.079 404.777 781.301 405.216C780.538 405.661 779.949 406.343 779.533 407.261C779.098 408.223 778.985 409.094 779.195 409.874C779.426 410.645 779.858 411.359 780.492 412.014C781.141 412.676 781.889 413.313 782.737 413.924C783.466 414.447 784.12 414.962 784.698 415.47C785.283 415.963 785.691 416.498 785.921 417.076C786.172 417.646 786.13 418.303 785.794 419.047C785.385 419.951 784.738 420.527 783.853 420.777C782.974 421.012 781.871 420.829 780.545 420.229C779.276 419.656 778.399 418.917 777.912 418.012C777.44 417.114 777.459 416.025 777.967 414.744L775.977 413.845C775.522 414.851 775.343 415.849 775.439 416.841C775.542 417.818 775.943 418.737 776.642 419.598C777.363 420.45 778.409 421.186 779.779 421.806Z" fill="white"/>
</svg>
