<svg width="1275" height="249" viewBox="0 0 1275 249" fill="none" xmlns="http://www.w3.org/2000/svg">
<circle cx="1201" cy="175" r="74" fill="#414141"/>
<path d="M1176.75 170.18C1177.75 170.18 1178.62 170.042 1179.36 169.766C1180.12 169.478 1180.7 169.052 1181.11 168.488C1181.53 167.912 1181.74 167.192 1181.74 166.328C1181.74 165.656 1181.61 165.098 1181.36 164.654C1181.12 164.21 1180.79 163.85 1180.37 163.574C1179.95 163.298 1179.47 163.076 1178.93 162.908C1178.4 162.74 1177.85 162.602 1177.28 162.494C1176.64 162.362 1176.06 162.224 1175.53 162.08C1175.01 161.936 1174.6 161.72 1174.29 161.432C1173.98 161.144 1173.82 160.724 1173.82 160.172C1173.82 159.5 1174.08 158.972 1174.59 158.588C1175.12 158.192 1175.83 157.994 1176.72 157.994C1177.75 157.994 1178.52 158.222 1179.02 158.678C1179.53 159.134 1179.8 159.764 1179.83 160.568H1181.49C1181.46 159.392 1181.05 158.456 1180.25 157.76C1179.44 157.052 1178.28 156.698 1176.75 156.698C1175.82 156.698 1175 156.842 1174.31 157.13C1173.61 157.418 1173.06 157.832 1172.67 158.372C1172.28 158.912 1172.09 159.56 1172.09 160.316C1172.09 161.108 1172.28 161.738 1172.67 162.206C1173.06 162.662 1173.58 163.016 1174.22 163.268C1174.86 163.52 1175.57 163.724 1176.34 163.88C1177 164.012 1177.61 164.162 1178.16 164.33C1178.71 164.486 1179.15 164.726 1179.49 165.05C1179.84 165.362 1180.01 165.824 1180.01 166.436C1180.01 167.18 1179.75 167.774 1179.22 168.218C1178.69 168.65 1177.88 168.866 1176.79 168.866C1175.75 168.866 1174.92 168.632 1174.31 168.164C1173.71 167.696 1173.38 166.946 1173.33 165.914H1171.7C1171.7 166.742 1171.88 167.48 1172.25 168.128C1172.63 168.764 1173.18 169.268 1173.93 169.64C1174.68 170 1175.63 170.18 1176.75 170.18ZM1187.41 170H1189.98V168.758H1187.42V161.828H1190.09V160.568H1187.42V157.472H1185.91V160.568H1183.66V161.828H1185.91V168.56C1185.91 168.98 1186.03 169.328 1186.25 169.604C1186.48 169.868 1186.87 170 1187.41 170ZM1195.67 170.18C1196.35 170.18 1196.96 170.012 1197.48 169.676C1198.02 169.328 1198.41 168.878 1198.64 168.326H1198.76V170H1200.27V160.568H1198.83L1198.76 162.278H1198.64C1198.42 161.702 1198.04 161.246 1197.5 160.91C1196.97 160.574 1196.36 160.406 1195.67 160.406C1194.5 160.406 1193.59 160.808 1192.93 161.612C1192.28 162.416 1191.96 163.622 1191.96 165.23V165.428C1191.96 166.916 1192.26 168.08 1192.88 168.92C1193.5 169.76 1194.43 170.18 1195.67 170.18ZM1196.19 168.92C1195.38 168.92 1194.75 168.686 1194.28 168.218C1193.81 167.738 1193.58 167.072 1193.58 166.22V164.384C1193.58 163.508 1193.81 162.836 1194.28 162.368C1194.75 161.888 1195.38 161.648 1196.19 161.648C1196.98 161.648 1197.6 161.906 1198.06 162.422C1198.52 162.938 1198.74 163.628 1198.74 164.492V166.094C1198.74 166.946 1198.52 167.63 1198.06 168.146C1197.6 168.662 1196.98 168.92 1196.19 168.92ZM1212.22 170H1214.81V168.758H1212.25V161.828H1214.9V160.568H1212.25V157.472H1210.72V168.56C1210.72 168.98 1210.84 169.328 1211.06 169.604C1211.3 169.868 1211.69 170 1212.22 170ZM1204.04 170H1205.56V161.828H1209.37V160.568H1205.52C1205.08 160.568 1204.72 160.7 1204.44 160.964C1204.18 161.216 1204.04 161.57 1204.04 162.026V170ZM1225.7 170.18C1226.38 170.18 1226.99 170.012 1227.52 169.676C1228.06 169.328 1228.44 168.878 1228.67 168.326H1228.79V170H1230.31V160.568H1228.87L1228.79 162.278H1228.67C1228.45 161.702 1228.07 161.246 1227.53 160.91C1227.01 160.574 1226.39 160.406 1225.7 160.406C1224.53 160.406 1223.62 160.808 1222.96 161.612C1222.31 162.416 1221.99 163.622 1221.99 165.23V165.428C1221.99 166.916 1222.3 168.08 1222.91 168.92C1223.53 169.76 1224.46 170.18 1225.7 170.18ZM1226.22 168.92C1225.42 168.92 1224.78 168.686 1224.31 168.218C1223.84 167.738 1223.61 167.072 1223.61 166.22V164.384C1223.61 163.508 1223.84 162.836 1224.31 162.368C1224.78 161.888 1225.42 161.648 1226.22 161.648C1227.01 161.648 1227.64 161.906 1228.09 162.422C1228.55 162.938 1228.78 163.628 1228.78 164.492V166.094C1228.78 166.946 1228.55 167.63 1228.09 168.146C1227.64 168.662 1227.01 168.92 1226.22 168.92ZM1171.31 197.006H1172.82V192.326H1172.94C1173.16 192.878 1173.54 193.328 1174.08 193.676C1174.62 194.012 1175.23 194.18 1175.91 194.18C1177.08 194.18 1177.98 193.784 1178.63 192.992C1179.28 192.2 1179.6 191.012 1179.6 189.428V189.23C1179.6 187.706 1179.29 186.524 1178.67 185.684C1178.06 184.832 1177.13 184.406 1175.9 184.406C1175.21 184.406 1174.6 184.574 1174.06 184.91C1173.53 185.246 1173.16 185.702 1172.94 186.278H1172.82L1172.73 184.568H1171.31V197.006ZM1175.39 192.92C1174.6 192.92 1173.97 192.662 1173.5 192.146C1173.05 191.63 1172.82 190.946 1172.82 190.094V188.492C1172.82 187.628 1173.05 186.938 1173.5 186.422C1173.97 185.906 1174.6 185.648 1175.39 185.648C1176.2 185.648 1176.83 185.888 1177.28 186.368C1177.75 186.836 1177.98 187.508 1177.98 188.384V190.22C1177.98 191.072 1177.75 191.738 1177.28 192.218C1176.83 192.686 1176.2 192.92 1175.39 192.92ZM1182.58 194H1184.09V185.828H1187.91V184.568H1184.06C1183.61 184.568 1183.25 184.7 1182.98 184.964C1182.71 185.216 1182.58 185.57 1182.58 186.026V194ZM1193.89 194.18C1195.34 194.18 1196.42 193.754 1197.13 192.902C1197.84 192.038 1198.19 190.85 1198.19 189.338V189.266C1198.19 187.61 1197.79 186.386 1197 185.594C1196.21 184.79 1195.17 184.388 1193.89 184.388C1192.59 184.388 1191.55 184.79 1190.76 185.594C1189.96 186.386 1189.57 187.61 1189.57 189.266V189.338C1189.58 190.85 1189.94 192.038 1190.65 192.902C1191.36 193.754 1192.44 194.18 1193.89 194.18ZM1193.89 192.92C1193.04 192.92 1192.36 192.68 1191.87 192.2C1191.38 191.72 1191.13 191.054 1191.13 190.202V188.366C1191.13 187.55 1191.38 186.896 1191.87 186.404C1192.38 185.9 1193.05 185.648 1193.89 185.648C1194.73 185.648 1195.39 185.9 1195.89 186.404C1196.38 186.896 1196.62 187.55 1196.62 188.366V190.202C1196.62 191.054 1196.38 191.72 1195.89 192.2C1195.41 192.68 1194.74 192.92 1193.89 192.92ZM1201.14 182.984H1202.67V180.878H1201.14V182.984ZM1199.04 197.006H1201.22C1201.65 197.006 1202 196.886 1202.26 196.646C1202.54 196.406 1202.67 196.04 1202.67 195.548V184.568H1201.14V195.854H1199.04V197.006ZM1209.97 194.18C1210.72 194.18 1211.38 194.048 1211.97 193.784C1212.57 193.52 1213.04 193.148 1213.39 192.668C1213.75 192.188 1213.96 191.63 1214 190.994H1212.55C1212.49 191.594 1212.22 192.08 1211.74 192.452C1211.26 192.812 1210.66 192.992 1209.94 192.992C1209.12 192.992 1208.45 192.752 1207.94 192.272C1207.43 191.792 1207.18 191.15 1207.18 190.346V189.68H1214.06V188.708C1214.06 187.412 1213.7 186.368 1212.98 185.576C1212.26 184.784 1211.23 184.388 1209.9 184.388C1209.06 184.388 1208.32 184.574 1207.67 184.946C1207.02 185.306 1206.52 185.846 1206.16 186.566C1205.8 187.274 1205.62 188.144 1205.62 189.176V189.284C1205.62 190.256 1205.77 191.114 1206.08 191.858C1206.41 192.59 1206.89 193.16 1207.54 193.568C1208.19 193.976 1209 194.18 1209.97 194.18ZM1207.18 188.546C1207.18 187.634 1207.41 186.908 1207.87 186.368C1208.32 185.828 1209.01 185.558 1209.92 185.558C1210.71 185.558 1211.35 185.792 1211.83 186.26C1212.32 186.716 1212.56 187.478 1212.56 188.546V188.636H1207.18V188.546ZM1220.51 194.18C1221.29 194.18 1221.98 194.036 1222.58 193.748C1223.19 193.46 1223.67 193.058 1224.02 192.542C1224.38 192.026 1224.57 191.426 1224.59 190.742H1223.1C1223.05 191.39 1222.8 191.918 1222.34 192.326C1221.9 192.722 1221.29 192.92 1220.51 192.92C1219.66 192.92 1218.98 192.68 1218.49 192.2C1218.01 191.72 1217.77 191.054 1217.77 190.202V188.366C1217.77 187.55 1218.02 186.896 1218.51 186.404C1219 185.9 1219.67 185.648 1220.51 185.648C1221.22 185.648 1221.8 185.834 1222.27 186.206C1222.74 186.578 1223.01 187.118 1223.08 187.826H1224.58C1224.5 186.758 1224.1 185.918 1223.37 185.306C1222.64 184.694 1221.68 184.388 1220.51 184.388C1219.22 184.388 1218.19 184.79 1217.39 185.594C1216.6 186.386 1216.21 187.61 1216.21 189.266V189.338C1216.21 190.838 1216.56 192.02 1217.27 192.884C1217.98 193.748 1219.06 194.18 1220.51 194.18ZM1229.99 194H1232.56V192.758H1230V185.828H1232.67V184.568H1230V181.472H1228.49V184.568H1226.24V185.828H1228.49V192.56C1228.49 192.98 1228.61 193.328 1228.83 193.604C1229.06 193.868 1229.45 194 1229.99 194Z" fill="white"/>
<path d="M99.3457 91.2253C119.738 91.2253 130.064 84.4096 130.064 67.3704C130.064 53.8701 123.79 46.9233 111.764 44.1709C121.698 41.5494 126.796 34.8648 126.796 23.7238C126.796 8.38853 117.123 1.83499 99.215 1.83499H0V91.2253H99.3457ZM91.7641 21.8888C99.0843 21.8888 102.222 24.2481 102.222 29.7531C102.222 35.258 98.3 37.6173 92.4176 37.6173H26.1436V21.8888H91.7641ZM94.6399 56.3605C101.306 56.3605 105.489 58.1954 105.489 64.4868C105.489 70.9093 101.96 72.7443 93.9863 72.7443H26.1436V56.3605H94.6399Z" fill="white"/>
<path d="M209.159 93.0603C260.27 93.0603 282.361 78.5114 282.361 46.5301C282.361 14.5489 260.27 0 209.159 0C158.048 0 135.957 14.5489 135.957 46.5301C135.957 78.5114 158.048 93.0603 209.159 93.0603ZM209.159 70.254C173.342 70.254 162.493 63.8315 162.493 46.5301C162.493 29.2288 173.342 22.8063 209.159 22.8063C244.845 22.8063 255.303 29.2288 255.303 46.5301C255.303 63.8315 244.845 70.254 209.159 70.254Z" fill="white"/>
<path d="M361.9 93.0603C413.011 93.0603 435.102 78.5114 435.102 46.5301C435.102 14.5489 413.011 0 361.9 0C310.789 0 288.698 14.5489 288.698 46.5301C288.698 78.5114 310.789 93.0603 361.9 93.0603ZM361.9 70.254C326.083 70.254 315.234 63.8315 315.234 46.5301C315.234 29.2288 326.083 22.8063 361.9 22.8063C397.586 22.8063 408.043 29.2288 408.043 46.5301C408.043 63.8315 397.586 70.254 361.9 70.254Z" fill="white"/>
<path d="M564.314 65.7975C564.314 47.3166 552.811 38.4037 527.19 36.962L478.563 34.0784C470.458 33.5541 467.06 32.7677 467.06 27.787C467.06 22.4131 470.589 21.1024 494.641 21.1024C516.994 21.1024 540.523 23.5927 555.686 26.6074L560 6.55354C542.353 2.75249 516.602 0.262146 500.785 0.262146C459.478 0.262146 441.962 8.38853 441.962 28.4424C441.962 45.0884 452.027 54.0012 479.739 55.3119L529.02 58.1954C535.948 58.8508 539.216 59.5061 539.216 65.0111C539.216 70.385 535.425 72.0889 514.51 72.0889C487.713 72.0889 465.491 68.55 447.19 64.4868L443.4 85.8514C459.478 89.7835 485.229 92.9292 507.451 92.9292C551.503 92.9292 564.314 84.6717 564.314 65.7975Z" fill="white"/>
<path d="M618.359 24.6413V91.2253H644.894V24.6413H697.704V1.83499H565.418V24.6413H618.359Z" fill="white"/>
<path d="M777.024 58.0644V91.2253H803.559V58.1954L864.082 1.83499H830.618L790.618 38.0105L750.619 1.83499H716.632L777.024 58.0644Z" fill="white"/>
<path d="M928.506 93.0603C979.617 93.0603 1001.71 78.5114 1001.71 46.5301C1001.71 14.5489 979.617 0 928.506 0C877.396 0 855.304 14.5489 855.304 46.5301C855.304 78.5114 877.396 93.0603 928.506 93.0603ZM928.506 70.254C892.69 70.254 881.84 63.8315 881.84 46.5301C881.84 29.2288 892.69 22.8063 928.506 22.8063C964.192 22.8063 974.65 29.2288 974.65 46.5301C974.65 63.8315 964.192 70.254 928.506 70.254Z" fill="white"/>
<path d="M1111.7 43.9087C1111.7 63.0451 1100.2 69.9918 1073.8 69.9918C1047.39 69.9918 1035.89 63.0451 1035.89 43.9087V1.83499H1009.35V49.5448C1009.35 80.0843 1034.45 92.6671 1073.8 92.6671C1113.14 92.6671 1138.24 80.0843 1138.24 49.5448V1.83499H1111.7V43.9087Z" fill="white"/>
<path d="M1175 91.2253V65.2733H1208.86L1240.88 91.2253H1274.22L1244.93 68.1568L1237.88 63.8315L1243.63 63.7004C1263.37 62.1276 1275 52.6905 1275 33.0298C1275 9.56817 1259.71 1.83499 1237.75 1.83499H1148.46V91.2253H1175ZM1175 24.6413H1235.13C1243.89 24.6413 1247.55 27.1317 1247.55 35.127C1247.55 42.4669 1243.89 45.3505 1235.13 45.3505H1175V24.6413Z" fill="white"/>
<path d="M99.3457 222.296C119.738 222.296 130.064 215.48 130.064 198.441C130.064 184.941 123.79 177.994 111.764 175.242C121.698 172.62 126.796 165.936 126.796 154.795C126.796 139.459 117.123 132.906 99.215 132.906H0V222.296H99.3457ZM91.7641 152.96C99.0843 152.96 102.222 155.319 102.222 160.824C102.222 166.329 98.3 168.688 92.4176 168.688H26.1436V152.96H91.7641ZM94.6399 187.431C101.306 187.431 105.489 189.266 105.489 195.558C105.489 201.98 101.96 203.815 93.9863 203.815H26.1436V187.431H94.6399Z" fill="white"/>
<path d="M239.616 174.98C239.616 194.116 228.113 201.063 201.708 201.063C175.303 201.063 163.8 194.116 163.8 174.98V132.906H137.264V180.616C137.264 211.155 162.362 223.738 201.708 223.738C241.054 223.738 266.152 211.155 266.152 180.616V132.906H239.616V174.98Z" fill="white"/>
<path d="M396.637 196.868C396.637 178.387 385.134 169.475 359.513 168.033L310.886 165.149C302.782 164.625 299.383 163.839 299.383 158.858C299.383 153.484 302.912 152.173 326.965 152.173C349.317 152.173 372.847 154.664 388.01 157.678L392.324 137.624C374.677 133.823 348.925 131.333 333.108 131.333C291.801 131.333 274.285 139.459 274.285 159.513C274.285 176.159 284.35 185.072 312.063 186.383L361.343 189.266C368.272 189.922 371.539 190.577 371.539 196.082C371.539 201.456 367.749 203.16 346.834 203.16C320.037 203.16 297.814 199.621 279.514 195.558L275.723 216.922C291.801 220.854 317.553 224 339.775 224C383.827 224 396.637 215.743 396.637 196.868Z" fill="white"/>
<path d="M526.273 196.868C526.273 178.387 514.77 169.475 489.149 168.033L440.522 165.149C432.417 164.625 429.019 163.839 429.019 158.858C429.019 153.484 432.548 152.173 456.6 152.173C478.953 152.173 502.482 154.664 517.645 157.678L521.959 137.624C504.312 133.823 478.561 131.333 462.744 131.333C421.437 131.333 403.921 139.459 403.921 159.513C403.921 176.159 413.986 185.072 441.698 186.383L490.979 189.266C497.907 189.922 501.175 190.577 501.175 196.082C501.175 201.456 497.384 203.16 476.469 203.16C449.672 203.16 427.45 199.621 409.149 195.558L405.359 216.922C421.437 220.854 447.188 224 469.41 224C513.462 224 526.273 215.743 526.273 196.868Z" fill="white"/>
<path d="M562.184 222.296V132.906H535.648V222.296H562.184Z" fill="white"/>
<path d="M600.163 222.296V160.824L677.418 222.296H707.09V132.906H680.555V193.329L603.954 132.906H573.627V222.296H600.163Z" fill="white"/>
<path d="M837.535 222.296V201.456H745.117V185.727H835.051V168.557H745.117V153.746H837.535V132.906H718.581V222.296H837.535Z" fill="white"/>
<path d="M967.967 196.868C967.967 178.387 956.464 169.475 930.843 168.033L882.216 165.149C874.111 164.625 870.713 163.839 870.713 158.858C870.713 153.484 874.242 152.173 898.294 152.173C920.647 152.173 944.176 154.664 959.34 157.678L963.653 137.624C946.006 133.823 920.255 131.333 904.438 131.333C863.131 131.333 845.615 139.459 845.615 159.513C845.615 176.159 855.68 185.072 883.392 186.383L932.673 189.266C939.601 189.922 942.869 190.577 942.869 196.082C942.869 201.456 939.078 203.16 918.163 203.16C891.366 203.16 869.144 199.621 850.844 195.558L847.053 216.922C863.131 220.854 888.883 224 911.105 224C955.157 224 967.967 215.743 967.967 196.868Z" fill="white"/>
<path d="M1097.6 196.868C1097.6 178.387 1086.1 169.475 1060.48 168.033L1011.85 165.149C1003.75 164.625 1000.35 163.839 1000.35 158.858C1000.35 153.484 1003.88 152.173 1027.93 152.173C1050.28 152.173 1073.81 154.664 1088.98 157.678L1093.29 137.624C1075.64 133.823 1049.89 131.333 1034.07 131.333C992.767 131.333 975.25 139.459 975.25 159.513C975.25 176.159 985.316 185.072 1013.03 186.383L1062.31 189.266C1069.24 189.922 1072.5 190.577 1072.5 196.082C1072.5 201.456 1068.71 203.16 1047.8 203.16C1021 203.16 998.78 199.621 980.479 195.558L976.688 216.922C992.767 220.854 1018.52 224 1040.74 224C1084.79 224 1097.6 215.743 1097.6 196.868Z" fill="white"/>
</svg>
